<svg xmlns="http://www.w3.org/2000/svg" width="204.465" height="63.461" viewBox="0 0 204.465 63.461">
  <g id="Group_4083" data-name="Group 4083" transform="translate(381 99.47)">
    <path id="Path_1" data-name="Path 1" d="M16.476,20A18.058,18.058,0,0,0,6.063,22.746l-1.8,1.486a13.286,13.286,0,0,0-2.5,3.624,17.551,17.551,0,0,0-1.37,4.29C.3,32.627.225,33.273.109,33.772c1.257,0,2.523-.152,3.747-.152a5.1,5.1,0,0,1,.274-1.027c.117-.409.213-.7.328-1.049,1.687-5.1,5.368-8.1,11.023-8.1a14.926,14.926,0,0,1,2.495.183c.728.116,1.535.37,2.247.429a22.15,22.15,0,0,1,1.519-8.272A18.052,18.052,0,0,1,23.4,12.551a18.812,18.812,0,0,1,3.42-4,21.555,21.555,0,0,1,4.463-2.956A18.89,18.89,0,0,1,36.9,3.861a27.3,27.3,0,0,1,3.9-.229,19.1,19.1,0,0,1,9.67,3.028A26.684,26.684,0,0,1,52.914,8.5a18.487,18.487,0,0,1,2.091,2.116c.163.174.336.413.477.594.16.2.308.377.471.6a24.41,24.41,0,0,1,3.383,6.255c.094.271.223.567.276.8l1.326-.587A12.966,12.966,0,0,1,65.731,17.1a9.876,9.876,0,0,1,3.946.567,8.624,8.624,0,0,1,4.157,3.874c1.433,2.492,1.7,4.681,2.113,7.525.075.507-.015,1.053.053,1.553a25.937,25.937,0,0,1-.02,3.081h3.594c0-.384.081-.528.078-.993l.072-2.062c-.116-1.314-.118-2.865-.3-4.14-.554-3.922-1.809-7.85-5.009-10.366-.257-.2-.4-.322-.655-.493a13.021,13.021,0,0,0-4.647-1.931,16.386,16.386,0,0,0-4.935-.384,25.91,25.91,0,0,0-2.885.25c-.247-.465-.519-.92-.765-1.377a20.162,20.162,0,0,0-2.657-3.768l-1-1.139a27.9,27.9,0,0,0-4.785-3.858c-.258-.158-.415-.247-.679-.392A25.261,25.261,0,0,0,44.348.463C43.72.321,43.156.274,42.494.176A23.459,23.459,0,0,0,32.413,1.213a21.987,21.987,0,0,0-7.048,3.661c-1,.834-1.861,1.569-2.79,2.487A21.719,21.719,0,0,0,18.967,12.4c-.1.189-.127.273-.23.458a19.985,19.985,0,0,0-1.833,4.9A9.025,9.025,0,0,0,16.476,20" transform="translate(-381 -99.469)" fill="#fff" fill-rule="evenodd"/>
    <path id="Path_2" data-name="Path 2" d="M108.1,28.418c0,.652,2.589,7.265,2.916,8.176l3.5,9.5c.079.218.158.476.241.678l1,2.669a.618.618,0,0,0,.6.392h2.371c.414,0,.638-.117.749-.4l.289-.935c.2-.691.4-1.189.584-1.864.558-2.021,1.674-5.238,2.346-7.446.266-.873.964-2.911,1.156-3.739.212.155.13.106.224.388.058.172.1.323.142.47.7,2.53,1.869,5.759,2.634,8.381.172.589.4,1.281.578,1.87l.875,2.8c.138.364.276.475.748.475,2.92,0,2.81.262,3.2-.927l1.506-4.077c.354-.923.64-1.758.995-2.677l3.006-8.162c.325-.9.7-1.805.994-2.678,1.276-3.845,2.211-3.28-2.973-3.28-.425,0-.5.315-.6.619s-.205.61-.315.91l-1.977,5.595c-.361,1.088-1.016,2.671-1.31,3.662-.192.644-.437,1.193-.66,1.865-.116.347-.217.613-.324.9a5.863,5.863,0,0,0-.317.983l-1.826-5.518c-.619-1.83-1.128-3.743-1.72-5.546-.206-.626-.344-1.188-.555-1.817-.11-.33-.193-.593-.3-.926-.315-1-.082-.727-3.326-.727-.557,0-.606.607-.869,1.5l-4.026,13.109c-.069-.08-.03.005-.121-.185-.009-.018-.08-.218-.082-.224L112.7,28.791c-.094-.268-.229-.755-.545-.755h-3.672a.433.433,0,0,0-.382.382" transform="translate(-381 -99.469)" fill="#fff" fill-rule="evenodd"/>
    <path id="Path_3" data-name="Path 3" d="M86.611,39.281a6.508,6.508,0,0,1,2.045-5.069,6.148,6.148,0,0,1,1.921-1.292,7.826,7.826,0,0,1,1.191-.414l1.5-.187,1.435.172a7.993,7.993,0,0,1,1.211.4,6.792,6.792,0,0,1,3.372,3.206,6.678,6.678,0,1,1-12.671,3.188m13.537-8.568a1.69,1.69,0,0,1-.556-.361,10.988,10.988,0,0,0-4.774-1.958,12.514,12.514,0,0,0-3.5.069,10.552,10.552,0,0,0-5.137,2.512,10.242,10.242,0,0,0-1.792,2.033A10.722,10.722,0,0,0,99.414,47.8a3,3,0,0,1,.734-.491c0,.695-.154,2.142.229,2.142h3.289c.176,0,.229-.053.229-.23V21.763h-3.747Z" transform="translate(-381 -99.469)" fill="#fff" fill-rule="evenodd"/>
    <path id="Path_4" data-name="Path 4" d="M144.279,39.127a7.88,7.88,0,0,1,1.02-4.411l1.061-1.387,1.452-1.072a5.993,5.993,0,0,1,3.427-.7c6.386,0,8.07,8.668,4.608,12.564a6.675,6.675,0,0,1-1.91,1.533,7.66,7.66,0,0,1-2.853.67,7.367,7.367,0,0,1-2.855-.588c-.212-.1-.355-.168-.561-.28a6.758,6.758,0,0,1-2.843-3.352,8.505,8.505,0,0,1-.546-2.974M140,38.9a11.941,11.941,0,0,0,.862,4.493l.9,1.776a10.564,10.564,0,0,0,4.176,3.932,10.193,10.193,0,0,0,10.954-.8c.251-.188.4-.375.622-.525v1.759c.265.178.29.306.764.306h2.754c.547,0,.765-.218.765-.765V28.647c0-.353-.17-.612-.536-.612-4.39,0-3.747-.448-3.747,1.989a11.748,11.748,0,0,0-2.828-1.762,10.388,10.388,0,0,0-8.34.231,10.932,10.932,0,0,0-6.085,7.836A13.434,13.434,0,0,0,140,38.9" transform="translate(-381 -99.469)" fill="#fff" fill-rule="evenodd"/>
    <path id="Path_5" data-name="Path 5" d="M188.1,31.554a5.083,5.083,0,0,1,4.379,1.74,6.433,6.433,0,0,1,1.74,3.691H182.444a7.162,7.162,0,0,1,1.177-2.953,5.491,5.491,0,0,1,.618-.759,5.355,5.355,0,0,1,3.865-1.719m-10.1,6.732c0,3.151.3,4.678,1.8,7.147a10.178,10.178,0,0,0,5.836,4.49A10.825,10.825,0,0,0,195.809,47.6l.51-.485c.521-.557,1.881-2.124,1.881-2.709,0-.454-.294-.481-.61-.615-3.7-1.571-2.572-1.565-4.011.277a6.485,6.485,0,0,1-7.831,1.546A6.257,6.257,0,0,1,183.1,42.9a6.453,6.453,0,0,1-.661-2.092H198.2c.184,0,.224-.124.382-.23a15.813,15.813,0,0,0-.45-5.211,13.634,13.634,0,0,0-.772-2.134,9.9,9.9,0,0,0-15.593-3.2,4.536,4.536,0,0,0-.988,1,10.686,10.686,0,0,0-1.585,2.393,11.48,11.48,0,0,0-1.186,4.857" transform="translate(-381 -99.469)" fill="#fff" fill-rule="evenodd"/>
    <path id="Path_6" data-name="Path 6" d="M48.292,45.707a6.654,6.654,0,0,1-4.57-1.855,6.556,6.556,0,0,1-1.4-1.815,6.676,6.676,0,0,1,4.595-9.56,6.665,6.665,0,0,1,8.026,6.728,6.737,6.737,0,0,1-3.954,5.913,7.227,7.227,0,0,1-2.7.589M37.585,38.516a10.314,10.314,0,0,0,1.1,5.253,10.03,10.03,0,0,0,2.212,2.99,10.711,10.711,0,0,0,16.086-1.467,8.912,8.912,0,0,0,.995-1.683,10.736,10.736,0,0,0,.706-7.221,11.382,11.382,0,0,0-1.128-2.773,10.934,10.934,0,0,0-4.874-4.382,11.185,11.185,0,0,0-4.32-.957l-2.316.262a10.062,10.062,0,0,0-1.979.623,10.608,10.608,0,0,0-2.442,1.458,11.685,11.685,0,0,0-1.95,2.028,10.566,10.566,0,0,0-2.086,5.869" transform="translate(-381 -99.469)" fill="#fff" fill-rule="evenodd"/>
    <path id="Path_7" data-name="Path 7" d="M61.448,29.336V40.582c0,7.294,8,12.218,14.21,8.093a6.833,6.833,0,0,0,1.182-.96A9.067,9.067,0,0,0,78.6,45.341a9.369,9.369,0,0,0,1.054-3.153V35.762c0-.176-.054-.229-.23-.229H76.056c-.369,0-.23.671-.23,1.377a36.468,36.468,0,0,1-.134,4.914A4.925,4.925,0,0,1,72.714,45.5a5.265,5.265,0,0,1-5.138-.645c-1.3-.975-2-2.467-2-4.733V29.107h-3.9c-.176,0-.229.053-.229.229" transform="translate(-381 -99.469)" fill="#fff" fill-rule="evenodd"/>
    <path id="Path_8" data-name="Path 8" d="M14.564,49.914a16.762,16.762,0,0,0,6.7-1.179c.547-.219,1.155-.479,1.639-.732l3.541-2.272c.235-.192.464-.346.682-.542a8.056,8.056,0,0,0,1.206-1.165,13.489,13.489,0,0,0-2.042-2.012c-.268-.224-.462-.449-.711-.666-.572.383-.914.807-1.408,1.193-2.2,1.719-5.41,3.474-8.229,3.474a10.759,10.759,0,0,1-3.815-.392l-.96-.34c-.183-.075-.278-.1-.44-.173A11.306,11.306,0,0,1,4.5,37.565L4.181,35.9c-.031-.257.026-.44-.248-.44-.407,0-3.751.227-3.847.29-.247.161.112,1.357.177,1.622A17.282,17.282,0,0,0,2.694,43.2a14.845,14.845,0,0,0,2.9,3.3,14.223,14.223,0,0,0,8.972,3.419" transform="translate(-381 -99.469)" fill="#fff" fill-rule="evenodd"/>
    <path id="Path_9" data-name="Path 9" d="M166.535,28.8V48.919c0,.633.121.918.765.918h2.753c.474,0,.5-.128.765-.306,0-.942-.067-10.711.032-11.366.061-.4.055-.939.1-1.278a7.863,7.863,0,0,1,.49-2.341,3.953,3.953,0,0,1,2.163-2.12c2.4-.96,3.641.312,3.641-1.1V28.8c0-.956-.722-.765-1.913-.765a7.352,7.352,0,0,0-2.533.449,5.084,5.084,0,0,0-1.5.79c-.2.14-.253.232-.474.291,0-1.86.473-1.53-3.671-1.53-.456,0-.612.309-.612.765" transform="translate(-381 -99.469)" fill="#fff" fill-rule="evenodd"/>
    <path id="Path_10" data-name="Path 10" d="M31.008,26.123V49.072c0,.177.053.23.229.23h3.672c.176,0,.229-.053.229-.23V26.047c0-.177-.053-.23-.229-.23h-3.6a.294.294,0,0,0-.306.306" transform="translate(-381 -99.469)" fill="#fff" fill-rule="evenodd"/>
    <path id="Path_11" data-name="Path 11" d="M37.126,21.3a2.219,2.219,0,0,0,4.418.288,4.341,4.341,0,0,1,.953-3.025,2.9,2.9,0,0,1,1.214-.774,4.485,4.485,0,0,1,.786-.209c.326-.052.63,0,.948-.046a2.275,2.275,0,0,0,2.006-2.048v-.382a2.19,2.19,0,0,0-1.987-1.99c-2.929,0-2.35,2.9-2.609,3.742a2.716,2.716,0,0,1-.736,1.329c-1.08,1.08-2.183.77-3.1.95A2.182,2.182,0,0,0,37.126,21.3" transform="translate(-381 -99.469)" fill="#fff" fill-rule="evenodd"/>
    <path id="Path_12" data-name="Path 12" d="M31.084,15.337a2.292,2.292,0,0,0,2.065,2.218,2.123,2.123,0,0,0,1.976-.931c.875-1.292-.07-2.231,1.244-3.88,1.4-1.76,3.484-.641,4.519-1.906a2.205,2.205,0,0,0-1.85-3.686,2.166,2.166,0,0,0-1.99,1.987c-.08,2.005-.431,3.26-2.222,3.82-.94.3-2.239-.122-3.15.9a2.66,2.66,0,0,0-.592,1.474" transform="translate(-381 -99.469)" fill="#fff" fill-rule="evenodd"/>
    <path id="Path_13" data-name="Path 13" d="M31.084,21.227a2.192,2.192,0,0,0,3.731,1.743,2.238,2.238,0,0,0,.676-1.313c.155-.867-.1-1.943,1-3.052,1.687-1.7,2.983-.328,4.326-1.716A2.21,2.21,0,1,0,37,15.058c-.163.9.377,3.634-2.953,4.085-.735.1-1.471-.145-2.3.685a2.073,2.073,0,0,0-.667,1.4" transform="translate(-381 -99.469)" fill="#fff" fill-rule="evenodd"/>
    <path id="Path_14" data-name="Path 14" d="M31.084,9.446A2.222,2.222,0,0,0,35.52,9.6V9.216c0-1.753-2.457-2.7-3.8-1.352a2.565,2.565,0,0,0-.636,1.582" transform="translate(-381 -99.469)" fill="#fff" fill-rule="evenodd"/>
    <path id="Path_15" data-name="Path 15" d="M43.092,9.369a2.225,2.225,0,1,0,3.845-1.474,2.255,2.255,0,0,0-3.845,1.474" transform="translate(-381 -99.469)" fill="#fff" fill-rule="evenodd"/>
    <path id="Path_16" data-name="Path 16" d="M43.092,21.227a2.216,2.216,0,1,0,.675-1.467,2.355,2.355,0,0,0-.675,1.467" transform="translate(-381 -99.469)" fill="#fff" fill-rule="evenodd"/>
    <text id="Simplifying_Digital_Tra" data-name="Simplifying Digital Tra" transform="translate(-284.245 -38.009)" fill="#fff" font-size="7.634" font-family="TwCenMT-Regular, Tw Cen MT"><tspan x="0" y="0">Simplifying Digital </tspan><tspan y="0" letter-spacing="-0.049em">T</tspan><tspan y="0" letter-spacing="-0.009em">r</tspan><tspan y="0">a</tspan></text>
    <text id="nsformation" transform="translate(-216.535 -38.009)" fill="#fff" font-size="7.634" font-family="ArialMT, Arial"><tspan x="0" y="0">nsformation</tspan></text>
  </g>
</svg>
