<?xml version="1.0" encoding="UTF-8"?>
<!DOCTYPE svg PUBLIC "-//W3C//DTD SVG 1.1//EN" "http://www.w3.org/Graphics/SVG/1.1/DTD/svg11.dtd">
<!-- Creator: CorelDRAW 2021 (64-Bit) -->
<svg xmlns="http://www.w3.org/2000/svg" xml:space="preserve" width="2.12315in" height="0.655in" version="1.1" style="shape-rendering:geometricPrecision; text-rendering:geometricPrecision; image-rendering:optimizeQuality; fill-rule:evenodd; clip-rule:evenodd"
viewBox="0 0 2123.15 655"
 xmlns:xlink="http://www.w3.org/1999/xlink"
 xmlns:xodm="http://www.corel.com/coreldraw/odm/2003">
 <defs>
  <style type="text/css">
   <![CDATA[
    .str0 {stroke:#FF6600;stroke-width:3.14;stroke-linecap:round;stroke-linejoin:round;stroke-miterlimit:2.61313}
    .str3 {stroke:#FF6600;stroke-width:3.14;stroke-linecap:round;stroke-linejoin:round;stroke-miterlimit:2.61313}
    .str2 {stroke:#FF6600;stroke-width:3.14;stroke-linecap:round;stroke-linejoin:round;stroke-miterlimit:2.61313}
    .str1 {stroke:#FF6600;stroke-width:3.14;stroke-linecap:round;stroke-linejoin:round;stroke-miterlimit:2.61313}
    .fil0 {fill:none}
    .fil1 {fill:#FF6600}
    .fil4 {fill:white}
    .fil3 {fill:#FF6600;fill-rule:nonzero}
    .fil2 {fill:white;fill-rule:nonzero}
   ]]>
  </style>
 </defs>
 <g id="Layer_x0020_1">
  <metadata id="CorelCorpID_0Corel-Layer"/>
  <rect class="fil0" x="-0" width="2123.15" height="655"/>
  <g id="_2618644349680">
   <path class="fil1" d="M195.67 323.41l31.88 -1.47c17.41,-69.41 61.11,-102.75 143.22,-83.38 -1.39,-198.93 270.83,-255.92 344.31,-45.61 115.17,-54.72 149.43,45.3 142.73,129.97l31.39 0c6.31,-105.21 -24.2,-193.22 -159.89,-175.59 -95.94,-186.77 -359.21,-140.43 -391.4,56.41 -83.5,0.39 -131.93,39.17 -142.24,119.67z"/>
   <g>
    <path class="fil0 str0" d="M228.71 339.82l-32.87 2.56c19.68,121.73 147.5,162.26 244.16,70.43l-22.62 -20.92c-85.33,80.19 -180.3,30.92 -188.67,-52.08z"/>
    <path id="_1" class="fil1" d="M228.71 339.82l-32.87 2.56c19.68,121.73 147.5,162.26 244.16,70.43l-22.62 -20.92c-85.33,80.19 -180.3,30.92 -188.67,-52.08z"/>
   </g>
   <g>
    <polygon class="fil0 str1" points="467.07,256 499.47,256 499.47,457.56 467.07,457.56 "/>
    <polygon id="_1_0" class="fil1" points="467.07,256 499.47,256 499.47,457.56 467.07,457.56 "/>
   </g>
   <g>
    <path class="fil0 str0" d="M732.74 284.27l0 98.16c2.8,96.36 132.21,116.16 155.39,16.71l0 -58.66 -29.69 0 0 44.93c-5.31,63.54 -90.96,58.8 -92.96,0l0 -101.13 -32.74 0z"/>
    <path id="_1_1" class="fil1" d="M732.74 284.27l0 98.16c2.8,96.36 132.21,116.16 155.39,16.71l0 -58.66 -29.69 0 0 44.93c-5.31,63.54 -90.96,58.8 -92.96,0l0 -101.13 -32.74 0z"/>
   </g>
   <g>
    <path class="fil0 str2" d="M1070.52 220.18l29.53 0c0,79.57 0,159.04 0,238.58l-29.53 0 0 -21.34c-16.28,14.75 -37.89,23.72 -61.59,23.72 -50.7,0 -91.8,-41.1 -91.8,-91.8 0,-50.7 41.1,-91.8 91.8,-91.8 23.7,0 45.3,8.98 61.59,23.72l0 -81.09zm-61.59 89.06c33.2,0 60.11,26.91 60.11,60.11 0,33.2 -26.91,60.11 -60.11,60.11 -33.19,0 -60.11,-26.91 -60.11,-60.11 0,-33.19 26.91,-60.11 60.11,-60.11z"/>
    <path id="_1_2" class="fil1" d="M1070.52 220.18l29.53 0c0,79.57 0,159.04 0,238.58l-29.53 0 0 -21.34c-16.28,14.75 -37.89,23.72 -61.59,23.72 -50.7,0 -91.8,-41.1 -91.8,-91.8 0,-50.7 41.1,-91.8 91.8,-91.8 23.7,0 45.3,8.98 61.59,23.72l0 -81.09zm-61.59 89.06c33.2,0 60.11,26.91 60.11,60.11 0,33.2 -26.91,60.11 -60.11,60.11 -33.19,0 -60.11,-26.91 -60.11,-60.11 0,-33.19 26.91,-60.11 60.11,-60.11z"/>
   </g>
   <g>
    <path class="fil0 str3" d="M615.98 277.55c50.7,0 91.8,41.1 91.8,91.8 0,50.7 -41.1,91.8 -91.8,91.8 -50.7,0 -91.8,-41.1 -91.8,-91.8 0,-50.7 41.1,-91.8 91.8,-91.8zm0 31.69c33.19,0 60.11,26.91 60.11,60.11 0,33.2 -26.91,60.11 -60.11,60.11 -33.2,0 -60.11,-26.91 -60.11,-60.11 0,-33.19 26.91,-60.11 60.11,-60.11z"/>
    <path id="_1_3" class="fil1" d="M615.98 277.55c50.7,0 91.8,41.1 91.8,91.8 0,50.7 -41.1,91.8 -91.8,91.8 -50.7,0 -91.8,-41.1 -91.8,-91.8 0,-50.7 41.1,-91.8 91.8,-91.8zm0 31.69c33.19,0 60.11,26.91 60.11,60.11 0,33.2 -26.91,60.11 -60.11,60.11 -33.2,0 -60.11,-26.91 -60.11,-60.11 0,-33.19 26.91,-60.11 60.11,-60.11z"/>
   </g>
   <path class="fil2" d="M310.43 534.51c-5.34,-7.79 -12.74,-11.7 -22.19,-11.7 -6.22,0 -11.61,1.53 -16.11,4.56 -5.68,3.86 -8.56,9.04 -8.56,15.54 0,8.37 5.74,14.59 17.22,18.63l7.8 2.72c5.32,1.86 9.04,3.78 11.23,5.79 2.21,2.03 3.3,4.47 3.3,7.49 0,3.87 -1.52,7.21 -4.63,10.1 -3.24,3 -7.33,4.47 -12.15,4.47 -8.79,0 -14.46,-4.53 -16.97,-13.66l-9.04 2.31c3.17,12.16 12.52,19.06 25.72,19.06 6.89,0 12.81,-1.85 17.74,-5.56 5.8,-4.45 8.72,-10.08 8.72,-16.84 0,-4.64 -1.59,-8.53 -4.82,-11.74 -3.11,-3.13 -7.97,-5.8 -14.63,-8.09l-8.18 -2.85c-8.06,-2.78 -12.09,-6.71 -12.09,-11.74 0,-4.53 3.05,-8.96 7.51,-10.98 2.26,-1.04 4.76,-1.53 7.62,-1.53 6.05,0 11.1,2.78 15.09,8.29l7.41 -4.3zm15.93 14.57l0 49.52 8.89 0 0 -49.52 -8.89 0zm4.53 -22.25c-3.46,0 -6.41,2.57 -6.41,5.63 0,3.2 2.88,5.77 6.37,5.77 3.59,0 6.41,-2.51 6.41,-5.72 0,-3.11 -2.88,-5.69 -6.37,-5.69zm61.93 29.16c-4.13,-5.42 -9.85,-8.14 -17.03,-8.14 -6.64,0 -11.86,2.29 -15.72,6.84l0 -5.61 -8.89 0 0 49.52 8.89 0 0 -24.76c0,-6.63 1.11,-11.2 3.26,-13.71 2.63,-3.11 6.51,-4.68 11.6,-4.68 4.11,0 7.43,1.25 9.83,3.8 2.32,2.46 3.49,6.93 3.49,13.51l0 25.84 8.89 0 0 -24.74c0,-6.65 1.02,-11.22 3.17,-13.73 2.63,-3.11 6.47,-4.68 11.5,-4.68 4.09,0 7.26,1.25 9.64,3.8 2.34,2.46 3.49,6.93 3.49,13.51l0 25.84 8.89 0 0 -26.81c0,-3.22 -0.25,-6.11 -0.79,-8.61 -0.61,-3 -2.06,-5.83 -4.38,-8.4 -4.26,-4.7 -10.19,-7.04 -17.7,-7.04 -7.6,0 -13.65,2.74 -18.14,8.25zm56.5 68.66l8.89 0 0 -32.57c5.38,5.14 11.89,7.75 19.56,7.75 7.06,0 13.31,-2.18 18.72,-6.5 6.22,-5.1 9.31,-11.59 9.31,-19.49 0,-4.73 -1.21,-9.04 -3.69,-13.02 -2.53,-4.13 -6.05,-7.34 -10.65,-9.67 -4.3,-2.22 -8.83,-3.3 -13.69,-3.3 -7.78,0 -14.36,2.61 -19.56,7.81l0 -6.57 -8.89 0 0 75.57zm28.03 -69.64c5.45,0 10.06,1.68 13.8,5.01 3.86,3.48 5.76,8.1 5.76,13.88 0,4.96 -1.4,9.04 -4.22,12.26 -3.63,4.08 -9.26,6.52 -14.98,6.52 -5.63,0 -10.29,-1.68 -13.92,-5.01 -3.74,-3.43 -5.57,-7.99 -5.57,-13.71 0,-4.96 1.33,-9.04 4.11,-12.37 3.74,-4.4 8.7,-6.57 15.03,-6.57zm49.72 -30.97l-8.89 0 0 74.56 8.89 0 0 -74.56zm16.06 25.04l0 49.52 8.89 0 0 -49.52 -8.89 0zm4.53 -22.25c-3.46,0 -6.41,2.57 -6.41,5.63 0,3.2 2.88,5.77 6.37,5.77 3.59,0 6.41,-2.51 6.41,-5.72 0,-3.11 -2.88,-5.69 -6.37,-5.69zm41.2 29.4l0 -7.15 -10.27 0 0 -10.08c0,-5.61 2.07,-8.36 6.22,-8.36 0.92,0 2.15,0.17 3.8,0.54l0 -7.14c-2.19,-0.5 -4.03,-0.78 -5.51,-0.78 -8.96,0 -13.4,5.2 -13.4,15.69l0 10.14 -5.62 0 0 7.15 5.62 0 0 42.37 8.89 0 0 -42.37 10.27 0zm14.07 68.41l9.19 0 37.11 -75.57 -9.54 0 -18.29 37.61 -17.68 -37.61 -9.6 0 22.56 47.27 -13.76 28.3zm54.48 -75.57l0 49.52 8.89 0 0 -49.52 -8.89 0zm4.53 -22.25c-3.46,0 -6.41,2.57 -6.41,5.63 0,3.2 2.88,5.77 6.37,5.77 3.59,0 6.41,-2.51 6.41,-5.72 0,-3.11 -2.88,-5.69 -6.37,-5.69zm29.19 22.25l-8.89 0 0 49.52 8.89 0 0 -24.76c0,-6.63 1.15,-11.2 3.48,-13.71 2.88,-3.11 6.97,-4.68 12.44,-4.68 4.34,0 7.83,1.25 10.46,3.74 2.78,2.69 3.8,6.39 3.8,13.58l0 25.82 8.89 0 0 -26.81c0,-8.55 -1.65,-13.79 -5.72,-17.7 -4.26,-4.18 -9.83,-6.24 -16.63,-6.24 -7.06,0 -12.63,2.29 -16.72,6.84l0 -5.61zm98.54 0l0 6.54c-5.39,-5.16 -11.9,-7.77 -19.56,-7.77 -7.06,0 -13.32,2.18 -18.72,6.5 -6.22,5.1 -9.31,11.59 -9.31,19.49 0,4.73 1.21,9.04 3.69,13.02 2.52,4.13 6.06,7.34 10.65,9.67 4.3,2.22 8.85,3.3 13.69,3.3 7.79,0 14.36,-2.61 19.56,-7.75l0 7.36c0,6.02 -1.78,10.71 -5.39,14.16 -3.63,3.43 -8.54,5.12 -14.86,5.12 -4.65,0 -8.7,-0.97 -12.15,-2.89 -2.02,-1.16 -4.47,-3.17 -7.22,-6.13l-5.78 5.26c3.74,3.87 7.56,6.69 11.48,8.37 3.93,1.68 8.52,2.56 13.74,2.56 9.14,0 17.37,-3.15 22.56,-8.63 4.32,-4.64 6.51,-10.54 6.51,-17.81l0 -50.36 -8.89 0zm-19.5 5.93c5.7,0 10.35,1.68 13.93,5.01 3.74,3.48 5.64,8.05 5.64,13.71 0,4.95 -1.34,9.09 -4.11,12.37 -3.74,4.4 -8.77,6.57 -15.09,6.57 -5.45,0 -10,-1.68 -13.74,-5.01 -3.86,-3.43 -5.82,-8.05 -5.82,-13.88 0,-4.96 1.4,-9.04 4.28,-12.26 3.88,-4.34 8.85,-6.52 14.92,-6.52zm77.61 43.59l17.14 0c12.54,0 22.77,-2.78 30.74,-8.31 9.58,-6.73 14.34,-16.42 14.34,-29.05 0,-12.54 -4.76,-22.17 -14.34,-28.9 -8.04,-5.53 -18.26,-8.31 -30.74,-8.31l-17.14 0 0 74.56zm17.56 -66.85c9.75,0 17.7,2.18 23.96,6.61 7.52,5.37 11.31,12.97 11.31,22.88 0,9.95 -3.8,17.61 -11.31,23.03 -6.2,4.43 -14.21,6.61 -23.96,6.61l-8.2 0 0 -59.13 8.2 0zm57.9 17.33l0 49.52 8.89 0 0 -49.52 -8.89 0zm4.53 -22.25c-3.46,0 -6.41,2.57 -6.41,5.63 0,3.2 2.88,5.77 6.37,5.77 3.59,0 6.41,-2.51 6.41,-5.72 0,-3.11 -2.88,-5.69 -6.37,-5.69zm64.14 22.25l0 6.54c-5.39,-5.16 -11.9,-7.77 -19.56,-7.77 -7.06,0 -13.32,2.18 -18.72,6.5 -6.22,5.1 -9.31,11.59 -9.31,19.49 0,4.73 1.21,9.04 3.69,13.02 2.52,4.13 6.06,7.34 10.65,9.67 4.3,2.22 8.85,3.3 13.69,3.3 7.78,0 14.36,-2.61 19.56,-7.75l0 7.36c0,6.02 -1.78,10.71 -5.39,14.16 -3.63,3.43 -8.54,5.12 -14.86,5.12 -4.65,0 -8.7,-0.97 -12.15,-2.89 -2.02,-1.16 -4.47,-3.17 -7.22,-6.13l-5.78 5.26c3.74,3.87 7.56,6.69 11.48,8.37 3.93,1.68 8.52,2.56 13.74,2.56 9.14,0 17.36,-3.15 22.56,-8.63 4.32,-4.64 6.52,-10.54 6.52,-17.81l0 -50.36 -8.89 0zm-19.5 5.93c5.7,0 10.35,1.68 13.93,5.01 3.74,3.48 5.64,8.05 5.64,13.71 0,4.95 -1.34,9.09 -4.12,12.37 -3.73,4.4 -8.76,6.57 -15.09,6.57 -5.45,0 -10,-1.68 -13.74,-5.01 -3.86,-3.43 -5.82,-8.05 -5.82,-13.88 0,-4.96 1.4,-9.04 4.28,-12.26 3.88,-4.34 8.85,-6.52 14.92,-6.52zm44.28 -5.93l0 49.52 8.89 0 0 -49.52 -8.89 0zm4.53 -22.25c-3.46,0 -6.41,2.57 -6.41,5.63 0,3.2 2.88,5.77 6.37,5.77 3.59,0 6.41,-2.51 6.41,-5.72 0,-3.11 -2.88,-5.69 -6.37,-5.69zm39.41 29.4l0 -7.15 -9.23 0 0 -14.89 -8.89 3.15 0 11.74 -6.22 0 0 7.15 6.22 0 0 27.46c0,10.49 4.44,15.69 13.4,15.69 1.67,0 3.49,-0.28 5.51,-0.76l0 -7.15c-1.59,0.39 -2.88,0.54 -3.8,0.54 -4.15,0 -6.22,-2.72 -6.22,-8.26l0 -27.52 9.23 0zm63.02 -7.15l-8.89 0 0 6.54c-5.39,-5.16 -11.9,-7.77 -19.56,-7.77 -7.06,0 -13.32,2.18 -18.72,6.5 -6.22,5.1 -9.31,11.59 -9.31,19.49 0,4.73 1.21,9.04 3.69,13.02 2.53,4.13 6.06,7.34 10.65,9.67 4.3,2.22 8.85,3.3 13.69,3.3 7.79,0 14.36,-2.61 19.56,-7.75l0 6.52 8.89 0 0 -49.52zm-28.39 5.93c5.76,0 10.41,1.68 14.05,5.01 3.74,3.48 5.63,8.07 5.63,13.73 0,4.96 -1.4,9.09 -4.17,12.37 -3.74,4.38 -8.77,6.56 -15.15,6.56 -5.45,0 -10,-1.68 -13.74,-5.01 -3.86,-3.43 -5.82,-8.05 -5.82,-13.88 0,-4.96 1.4,-9.04 4.28,-12.26 3.88,-4.34 8.85,-6.52 14.93,-6.52zm53.16 -30.97l-8.89 0 0 74.56 8.89 0 0 -74.56zm92.84 7.72l0 -7.72 -52.58 0 0 7.72 21.64 0 0 66.85 9.35 0 0 -66.85 21.58 0zm12.09 17.38l-8.89 0 0 49.46 8.89 0 0 -23.89c0,-4.58 0.42,-8.07 1.21,-10.41 0.8,-2.35 2.28,-4.21 4.34,-5.63 2.44,-1.62 5.57,-2.44 9.35,-2.44 0.69,0 1.48,0 2.46,0.06l0 -7.1c-0.92,-0.06 -1.9,-0.11 -2.94,-0.11 -6.18,0 -11,1.84 -14.43,5.57l0 -5.52zm78.5 -0.06l-8.89 0 0 6.54c-5.38,-5.16 -11.89,-7.77 -19.56,-7.77 -7.06,0 -13.31,2.18 -18.72,6.5 -6.22,5.1 -9.31,11.59 -9.31,19.49 0,4.73 1.21,9.04 3.69,13.02 2.53,4.13 6.06,7.34 10.65,9.67 4.3,2.22 8.85,3.3 13.69,3.3 7.79,0 14.36,-2.61 19.56,-7.75l0 6.52 8.89 0 0 -49.52zm-28.39 5.93c5.76,0 10.41,1.68 14.05,5.01 3.74,3.48 5.64,8.07 5.64,13.73 0,4.96 -1.4,9.09 -4.18,12.37 -3.74,4.38 -8.76,6.56 -15.15,6.56 -5.45,0 -10,-1.68 -13.73,-5.01 -3.86,-3.43 -5.83,-8.05 -5.83,-13.88 0,-4.96 1.4,-9.04 4.28,-12.26 3.88,-4.34 8.85,-6.52 14.93,-6.52zm53.04 -5.93l-8.89 0 0 49.52 8.89 0 0 -24.76c0,-6.63 1.15,-11.2 3.48,-13.71 2.88,-3.11 6.97,-4.68 12.44,-4.68 4.34,0 7.83,1.25 10.46,3.74 2.78,2.69 3.8,6.39 3.8,13.58l0 25.82 8.89 0 0 -26.81c0,-8.55 -1.65,-13.79 -5.72,-17.7 -4.26,-4.18 -9.83,-6.24 -16.64,-6.24 -7.05,0 -12.63,2.29 -16.72,6.84l0 -5.61zm87.48 7.75c-3.71,-5.94 -9.29,-8.96 -16.55,-8.96 -4.7,0 -8.73,1.27 -12.19,3.84 -3.63,2.68 -5.47,6.15 -5.47,10.43 0,5.7 3.78,9.82 11.31,12.43l5.99 2.11c4.03,1.36 6.64,2.56 7.93,3.6 1.21,1.02 1.83,2.44 1.83,4.28 0,1.94 -0.73,3.69 -2.21,5.26 -1.81,1.9 -4.38,2.87 -7.74,2.87 -2.76,0 -5.01,-0.59 -6.78,-1.84 -1.78,-1.25 -3.46,-3.41 -5.11,-6.5l-7.66 2.87c3.67,8.42 10.04,12.63 19.19,12.63 5.26,0 9.64,-1.38 13.25,-4.16 3.99,-3.09 5.93,-6.89 5.93,-11.51 0,-5.91 -3.72,-9.71 -12.59,-12.74l-5.43 -1.9c-4.03,-1.42 -6.41,-2.39 -7.2,-2.98 -1.65,-1.25 -2.44,-2.81 -2.44,-4.71 0,-4.08 3.84,-6.95 9.14,-6.95 2.4,0 4.41,0.59 6.18,1.73 1.11,0.7 2.25,1.9 3.48,3.57l7.14 -3.35zm34.13 -0.59l0 -7.15 -10.27 0 0 -10.08c0,-5.61 2.07,-8.36 6.22,-8.36 0.92,0 2.15,0.17 3.8,0.54l0 -7.14c-2.19,-0.5 -4.03,-0.78 -5.51,-0.78 -8.95,0 -13.4,5.2 -13.4,15.69l0 10.14 -5.62 0 0 7.15 5.62 0 0 42.37 8.89 0 0 -42.37 10.27 0zm34 -8.39c-7.79,0 -14.36,2.16 -19.7,6.45 -6.22,5.12 -9.31,11.55 -9.31,19.3 0,6.93 2.42,12.87 7.2,17.77 5.55,5.65 12.67,8.46 21.33,8.46 7.47,0 13.92,-2.18 19.26,-6.5 6.22,-5.12 9.31,-11.67 9.31,-19.56 0,-6.76 -2.42,-12.61 -7.2,-17.51 -5.61,-5.61 -12.61,-8.41 -20.89,-8.41zm-0.79 7.16c5.76,0 10.5,1.68 14.23,5.01 3.86,3.43 5.76,8.01 5.76,13.64 0,5.01 -1.4,9.17 -4.24,12.48 -3.8,4.36 -8.95,6.54 -15.44,6.54 -5.47,0 -10.08,-1.68 -13.82,-5.01 -3.86,-3.43 -5.82,-8.07 -5.82,-13.84 0,-4.98 1.4,-9.06 4.28,-12.28 3.88,-4.36 8.85,-6.54 15.05,-6.54zm50.03 -5.87l-8.89 0 0 49.46 8.89 0 0 -23.89c0,-4.58 0.42,-8.07 1.21,-10.41 0.8,-2.35 2.28,-4.21 4.34,-5.63 2.44,-1.62 5.57,-2.44 9.35,-2.44 0.69,0 1.48,0 2.46,0.06l0 -7.1c-0.92,-0.06 -1.9,-0.11 -2.94,-0.11 -6.18,0 -11,1.84 -14.42,5.57l0 -5.52zm68.59 6.85c-4.14,-5.42 -9.86,-8.14 -17.04,-8.14 -6.64,0 -11.86,2.29 -15.72,6.84l0 -5.61 -8.89 0 0 49.52 8.89 0 0 -24.76c0,-6.63 1.11,-11.2 3.26,-13.71 2.63,-3.11 6.51,-4.68 11.6,-4.68 4.11,0 7.43,1.25 9.83,3.8 2.31,2.46 3.48,6.93 3.48,13.51l0 25.84 8.89 0 0 -24.74c0,-6.65 1.03,-11.22 3.17,-13.73 2.63,-3.11 6.47,-4.68 11.5,-4.68 4.09,0 7.26,1.25 9.64,3.8 2.33,2.46 3.48,6.93 3.48,13.51l0 25.84 8.89 0 0 -26.81c0,-3.22 -0.25,-6.11 -0.8,-8.61 -0.6,-3 -2.06,-5.83 -4.38,-8.4 -4.26,-4.7 -10.19,-7.04 -17.7,-7.04 -7.6,0 -13.65,2.74 -18.13,8.25zm109.79 -6.91l-8.89 0 0 6.54c-5.38,-5.16 -11.9,-7.77 -19.56,-7.77 -7.06,0 -13.32,2.18 -18.72,6.5 -6.22,5.1 -9.31,11.59 -9.31,19.49 0,4.73 1.21,9.04 3.69,13.02 2.53,4.13 6.06,7.34 10.65,9.67 4.3,2.22 8.85,3.3 13.69,3.3 7.78,0 14.36,-2.61 19.56,-7.75l0 6.52 8.89 0 0 -49.52zm-28.39 5.93c5.76,0 10.41,1.68 14.05,5.01 3.74,3.48 5.63,8.07 5.63,13.73 0,4.96 -1.4,9.09 -4.17,12.37 -3.74,4.38 -8.77,6.56 -15.15,6.56 -5.45,0 -10,-1.68 -13.74,-5.01 -3.86,-3.43 -5.82,-8.05 -5.82,-13.88 0,-4.96 1.4,-9.04 4.28,-12.26 3.88,-4.34 8.85,-6.52 14.93,-6.52zm63.39 1.23l0 -7.15 -9.23 0 0 -14.89 -8.89 3.15 0 11.74 -6.22 0 0 7.15 6.22 0 0 27.46c0,10.49 4.44,15.69 13.4,15.69 1.67,0 3.48,-0.28 5.51,-0.76l0 -7.15c-1.59,0.39 -2.88,0.54 -3.8,0.54 -4.16,0 -6.22,-2.72 -6.22,-8.26l0 -27.52 9.23 0zm11.39 -7.15l0 49.52 8.89 0 0 -49.52 -8.89 0zm4.53 -22.25c-3.46,0 -6.41,2.57 -6.41,5.63 0,3.2 2.88,5.77 6.37,5.77 3.59,0 6.41,-2.51 6.41,-5.72 0,-3.11 -2.88,-5.69 -6.37,-5.69zm45.8 21.02c-7.78,0 -14.36,2.16 -19.7,6.45 -6.22,5.12 -9.31,11.55 -9.31,19.3 0,6.93 2.42,12.87 7.2,17.77 5.55,5.65 12.67,8.46 21.33,8.46 7.47,0 13.92,-2.18 19.26,-6.5 6.22,-5.12 9.31,-11.67 9.31,-19.56 0,-6.76 -2.42,-12.61 -7.2,-17.51 -5.61,-5.61 -12.61,-8.41 -20.89,-8.41zm-0.79 7.16c5.76,0 10.5,1.68 14.23,5.01 3.86,3.43 5.76,8.01 5.76,13.64 0,5.01 -1.4,9.17 -4.24,12.48 -3.8,4.36 -8.95,6.54 -15.44,6.54 -5.47,0 -10.08,-1.68 -13.82,-5.01 -3.86,-3.43 -5.82,-8.07 -5.82,-13.84 0,-4.98 1.4,-9.06 4.28,-12.28 3.88,-4.36 8.85,-6.54 15.05,-6.54zm50.03 -5.93l-8.89 0 0 49.52 8.89 0 0 -24.76c0,-6.63 1.15,-11.2 3.48,-13.71 2.88,-3.11 6.97,-4.68 12.44,-4.68 4.34,0 7.83,1.25 10.46,3.74 2.78,2.69 3.8,6.39 3.8,13.58l0 25.82 8.89 0 0 -26.81c0,-8.55 -1.65,-13.79 -5.72,-17.7 -4.26,-4.18 -9.83,-6.24 -16.63,-6.24 -7.06,0 -12.63,2.29 -16.72,6.84l0 -5.61z"/>
   <g>
    <path class="fil3" d="M1205.57 460.59l-66.94 -181.37 7.68 -2.95 66.94 181.37 -3.84 5.67 -3.84 -2.71zm7.68 -2.95c0.8,2.16 -0.28,4.58 -2.39,5.39 -2.12,0.81 -4.49,-0.28 -5.28,-2.44l7.68 -2.95zm20.35 5.67l-24.19 0 0 -8.38 24.19 0 3.91 5.47 -3.91 2.91zm0 -8.38c2.26,0 4.1,1.88 4.1,4.19 0,2.31 -1.84,4.19 -4.1,4.19l0 -8.38zm46.86 -130.94l-42.95 136.41 -7.81 -2.56 42.95 -136.41 7.81 0 -0 2.56zm-7.81 -2.56c0.69,-2.2 3.01,-3.41 5.16,-2.71 2.15,0.7 3.34,3.07 2.65,5.27l-7.81 -2.56zm42.81 138.96l-42.82 -136.41 7.82 -2.55 42.82 136.41 -3.91 5.46 -3.91 -2.91zm7.82 -2.55c0.69,2.2 -0.5,4.56 -2.66,5.26 -2.16,0.7 -4.47,-0.51 -5.16,-2.71l7.82 -2.55zm20.28 5.46l-24.19 0 0 -8.38 24.19 0 3.84 5.67 -3.84 2.71zm0 -8.38c2.26,0 4.1,1.88 4.1,4.19 0,2.31 -1.84,4.19 -4.1,4.19l0 -8.38zm70.78 -175.71l-66.94 181.37 -7.68 -2.95 66.94 -181.37 3.84 -2.71 3.84 5.67zm-7.68 -2.95c0.8,-2.16 3.17,-3.26 5.28,-2.44 2.12,0.81 3.19,3.23 2.39,5.39l-7.68 -2.95zm-26.58 -2.71l30.42 0 0 8.38 -30.42 0 -3.86 -5.61 3.86 -2.76zm0 8.38c-2.26,0 -4.1,-1.88 -4.1,-4.19 0,-2.31 1.84,-4.19 4.1,-4.19l0 8.38zm-52.78 132.22l48.92 -137.84 7.72 2.85 -48.92 137.84 -7.77 -0.17 0.06 -2.69zm7.72 2.85c-0.77,2.17 -3.13,3.3 -5.26,2.51 -2.13,-0.78 -3.23,-3.19 -2.46,-5.36l7.72 2.85zm-42.56 -140.52l42.61 137.84 -7.83 2.52 -42.61 -137.84 3.91 -5.45 3.91 2.93zm-7.83 2.52c-0.68,-2.2 0.52,-4.56 2.68,-5.25 2.16,-0.69 4.47,0.53 5.15,2.73l-7.83 2.52zm-20.21 -5.45l24.13 0 0 8.38 -24.13 0 -3.91 -5.44 3.91 -2.93zm0 8.38c-2.26,0 -4.1,-1.88 -4.1,-4.19 0,-2.31 1.84,-4.19 4.1,-4.19l0 8.38zm-46.33 132.39l42.42 -137.84 7.83 2.51 -42.42 137.84 -7.77 0.17 -0.06 -2.68zm7.83 2.51c-0.68,2.2 -2.98,3.43 -5.14,2.74 -2.16,-0.69 -3.36,-3.05 -2.69,-5.25l7.83 2.51zm-48.97 -140.52l48.91 137.84 -7.72 2.85 -48.91 -137.84 3.86 -5.61 3.86 2.76zm-7.72 2.85c-0.77,-2.17 0.33,-4.58 2.46,-5.36 2.13,-0.78 4.48,0.34 5.26,2.51l-7.72 2.85zm-26.77 -5.61l30.63 0 0 8.38 -30.63 0 -3.84 -2.71 3.84 -5.67zm0 8.38c-2.26,0 -4.1,-1.88 -4.1,-4.19 0,-2.31 1.84,-4.19 4.1,-4.19l0 8.38zm431.8 -8.38l28.55 0 0 8.38 -28.55 0 -4.1 -4.19 4.1 -4.19zm0 8.38c-2.26,0 -4.1,-1.88 -4.1,-4.19 0,-2.31 1.84,-4.19 4.1,-4.19l0 8.38zm-4.1 19.76l0 -23.95 8.2 0 0 23.95 -7.1 2.86 -1.1 -2.86zm8.2 0c0,2.31 -1.84,4.19 -4.1,4.19 -2.26,0 -4.1,-1.88 -4.1,-4.19l8.2 0zm-66.89 -24.27l0 -8.38 0 0 2.39 0.03 2.37 0.09 2.35 0.15 2.33 0.21 2.31 0.26 2.3 0.32 2.27 0.38 2.25 0.44 2.22 0.5 2.21 0.56 2.19 0.62 2.17 0.67 2.14 0.73 2.12 0.79 2.1 0.85 2.07 0.91 2.06 0.97 2.02 1.02 2 1.08 1.99 1.14 1.95 1.2 1.94 1.26 1.91 1.31 1.88 1.37 1.86 1.42 1.84 1.48 1.81 1.54 1.79 1.59 1.76 1.65 1.74 1.7 1.72 1.76 1.69 1.81 -6 5.72 -1.57 -1.68 -1.59 -1.62 -1.6 -1.57 -1.63 -1.51 -1.64 -1.46 -1.66 -1.4 -1.68 -1.35 -1.7 -1.3 -1.72 -1.24 -1.73 -1.19 -1.76 -1.14 -1.77 -1.08 -1.79 -1.04 -1.81 -0.97 -1.83 -0.92 -1.85 -0.87 -1.87 -0.82 -1.89 -0.76 -1.91 -0.71 -1.93 -0.66 -1.95 -0.61 -1.97 -0.56 -2 -0.5 -2.02 -0.45 -2.03 -0.4 -2.06 -0.34 -2.08 -0.3 -2.1 -0.24 -2.13 -0.19 -2.15 -0.14 -2.17 -0.08 -2.2 -0.02 0 0zm0 0c-2.26,0 -4.1,-1.88 -4.1,-4.19 0,-2.31 1.84,-4.19 4.1,-4.19l0 8.38zm-57.33 22.71l-5.55 -6.17 0.04 -0.04 1.7 -1.52 1.72 -1.48 1.74 -1.42 1.75 -1.37 1.77 -1.33 1.79 -1.28 1.81 -1.24 1.82 -1.19 1.84 -1.14 1.86 -1.09 1.88 -1.05 1.9 -1 1.91 -0.95 1.93 -0.9 1.94 -0.85 1.96 -0.8 1.98 -0.76 2 -0.71 2.01 -0.66 2.02 -0.61 2.05 -0.57 2.06 -0.51 2.07 -0.46 2.09 -0.41 2.11 -0.37 2.12 -0.32 2.13 -0.27 2.15 -0.22 2.16 -0.17 2.18 -0.12 2.19 -0.07 2.2 -0.03 0 8.38 -2.02 0.02 -2.02 0.07 -1.99 0.11 -1.98 0.16 -1.96 0.2 -1.94 0.25 -1.94 0.29 -1.92 0.33 -1.9 0.37 -1.89 0.43 -1.87 0.46 -1.85 0.51 -1.84 0.56 -1.83 0.6 -1.81 0.64 -1.79 0.69 -1.79 0.73 -1.76 0.78 -1.76 0.82 -1.74 0.86 -1.72 0.91 -1.71 0.95 -1.7 1 -1.68 1.04 -1.67 1.09 -1.66 1.13 -1.64 1.17 -1.63 1.22 -1.62 1.27 -1.59 1.31 -1.59 1.36 -1.57 1.41 0.04 -0.04zm-0.04 0.04c-1.69,1.54 -4.29,1.39 -5.8,-0.33 -1.51,-1.72 -1.37,-4.37 0.32,-5.91l5.47 6.24zm-28.52 68.26l-8.2 0 0 0 0.03 -2.79 0.09 -2.76 0.15 -2.73 0.21 -2.71 0.28 -2.68 0.33 -2.64 0.39 -2.62 0.46 -2.59 0.52 -2.56 0.57 -2.54 0.64 -2.5 0.7 -2.47 0.76 -2.44 0.82 -2.41 0.89 -2.38 0.95 -2.35 1 -2.32 1.07 -2.29 1.13 -2.26 1.19 -2.22 1.25 -2.19 1.31 -2.17 1.38 -2.14 1.44 -2.09 1.49 -2.06 1.56 -2.04 1.62 -2 1.67 -1.97 1.74 -1.93 1.8 -1.91 1.86 -1.87 1.91 -1.84 5.55 6.17 -1.77 1.7 -1.71 1.72 -1.65 1.76 -1.59 1.78 -1.54 1.8 -1.48 1.83 -1.42 1.85 -1.37 1.89 -1.31 1.91 -1.25 1.93 -1.19 1.97 -1.15 2 -1.08 2.02 -1.03 2.06 -0.97 2.08 -0.92 2.11 -0.86 2.13 -0.8 2.17 -0.75 2.2 -0.7 2.23 -0.64 2.26 -0.59 2.29 -0.53 2.31 -0.48 2.35 -0.42 2.38 -0.36 2.41 -0.31 2.44 -0.25 2.48 -0.2 2.5 -0.14 2.54 -0.09 2.58 -0.03 2.6 0 0zm0 0c0,2.31 -1.84,4.19 -4.1,4.19 -2.26,0 -4.1,-1.88 -4.1,-4.19l8.2 0zm11.36 45.69l-7.2 4.02 0.02 0.03 -0.77 -1.43 -0.74 -1.44 -0.72 -1.45 -0.69 -1.45 -0.67 -1.46 -0.64 -1.46 -0.63 -1.48 -0.59 -1.49 -0.57 -1.49 -0.54 -1.5 -0.52 -1.51 -0.49 -1.52 -0.48 -1.52 -0.44 -1.54 -0.42 -1.54 -0.4 -1.55 -0.37 -1.56 -0.35 -1.57 -0.33 -1.57 -0.3 -1.58 -0.28 -1.59 -0.25 -1.6 -0.23 -1.6 -0.2 -1.61 -0.18 -1.63 -0.15 -1.63 -0.13 -1.63 -0.11 -1.65 -0.08 -1.66 -0.06 -1.66 -0.04 -1.67 -0.01 -1.69 8.2 0 0.01 1.56 0.04 1.55 0.05 1.55 0.07 1.52 0.1 1.52 0.12 1.52 0.14 1.5 0.17 1.48 0.19 1.49 0.2 1.48 0.23 1.47 0.25 1.45 0.28 1.45 0.3 1.44 0.32 1.43 0.34 1.42 0.37 1.42 0.39 1.42 0.41 1.4 0.43 1.39 0.45 1.39 0.48 1.38 0.5 1.37 0.52 1.37 0.54 1.36 0.56 1.35 0.59 1.35 0.61 1.34 0.64 1.33 0.65 1.32 0.68 1.32 0.7 1.31 0.02 0.03zm-0.02 -0.03c1.1,2.02 0.39,4.57 -1.59,5.7 -1.98,1.13 -4.48,0.4 -5.58,-1.62l7.17 -4.08zm32.65 33.83l-4.1 7.25 0.03 0.02 -1.43 -0.84 -1.41 -0.87 -1.38 -0.88 -1.37 -0.9 -1.35 -0.93 -1.33 -0.94 -1.31 -0.96 -1.3 -0.99 -1.27 -1.01 -1.25 -1.03 -1.22 -1.04 -1.21 -1.06 -1.19 -1.09 -1.17 -1.11 -1.14 -1.13 -1.13 -1.15 -1.11 -1.17 -1.09 -1.19 -1.07 -1.21 -1.05 -1.22 -1.03 -1.25 -1.01 -1.28 -0.98 -1.29 -0.96 -1.31 -0.95 -1.33 -0.92 -1.35 -0.91 -1.37 -0.88 -1.39 -0.86 -1.41 -0.84 -1.43 -0.83 -1.45 -0.8 -1.47 7.2 -4.02 0.73 1.35 0.76 1.33 0.78 1.31 0.79 1.3 0.8 1.27 0.83 1.25 0.84 1.23 0.85 1.21 0.89 1.2 0.89 1.18 0.91 1.15 0.93 1.13 0.95 1.12 0.96 1.09 0.99 1.08 1 1.06 1.03 1.04 1.05 1.03 1.06 1 1.07 0.98 1.1 0.97 1.12 0.96 1.13 0.93 1.16 0.91 1.17 0.89 1.2 0.88 1.22 0.87 1.23 0.84 1.26 0.83 1.28 0.81 1.29 0.8 1.31 0.77 0.03 0.02zm-0.03 -0.02c1.97,1.14 2.66,3.7 1.55,5.7 -1.11,2.01 -3.63,2.72 -5.59,1.58l4.05 -7.28zm41.93 11.53l0 8.38 0 0 -1.52 -0.02 -1.51 -0.04 -1.5 -0.06 -1.51 -0.08 -1.5 -0.11 -1.49 -0.13 -1.49 -0.16 -1.48 -0.18 -1.48 -0.21 -1.47 -0.23 -1.47 -0.26 -1.46 -0.29 -1.46 -0.3 -1.45 -0.33 -1.44 -0.35 -1.44 -0.38 -1.44 -0.41 -1.43 -0.43 -1.43 -0.46 -1.41 -0.48 -1.41 -0.5 -1.42 -0.54 -1.4 -0.56 -1.39 -0.58 -1.4 -0.61 -1.38 -0.63 -1.38 -0.65 -1.38 -0.69 -1.37 -0.71 -1.36 -0.73 -1.36 -0.75 -1.35 -0.78 4.1 -7.25 1.24 0.71 1.25 0.7 1.25 0.67 1.26 0.65 1.25 0.62 1.27 0.6 1.26 0.58 1.26 0.55 1.28 0.53 1.28 0.51 1.28 0.48 1.29 0.46 1.3 0.44 1.29 0.42 1.3 0.39 1.3 0.37 1.3 0.34 1.32 0.32 1.32 0.3 1.32 0.28 1.33 0.26 1.33 0.23 1.34 0.21 1.34 0.19 1.35 0.17 1.36 0.15 1.36 0.12 1.37 0.1 1.37 0.07 1.38 0.06 1.39 0.04 1.39 0.01 0 0zm0 0c2.26,0 4.1,1.88 4.1,4.19 0,2.31 -1.84,4.19 -4.1,4.19l0 -8.38zm66.89 -24.2l-8.2 0 7.15 2.81 -1.65 1.81 -1.67 1.75 -1.7 1.7 -1.73 1.64 -1.76 1.59 -1.79 1.54 -1.81 1.48 -1.84 1.42 -1.87 1.37 -1.89 1.31 -1.93 1.25 -1.95 1.2 -1.98 1.14 -2 1.08 -2.03 1.02 -2.06 0.96 -2.08 0.91 -2.11 0.85 -2.13 0.79 -2.15 0.73 -2.19 0.67 -2.2 0.61 -2.23 0.56 -2.26 0.5 -2.27 0.44 -2.3 0.39 -2.33 0.32 -2.34 0.26 -2.36 0.2 -2.39 0.15 -2.41 0.09 -2.43 0.03 0 -8.38 2.24 -0.02 2.21 -0.08 2.18 -0.14 2.17 -0.19 2.14 -0.24 2.11 -0.29 2.09 -0.35 2.07 -0.4 2.04 -0.45 2.02 -0.51 1.99 -0.55 1.96 -0.61 1.95 -0.66 1.92 -0.71 1.89 -0.76 1.88 -0.81 1.85 -0.87 1.83 -0.92 1.81 -0.98 1.78 -1.02 1.76 -1.08 1.74 -1.13 1.72 -1.19 1.69 -1.23 1.67 -1.3 1.65 -1.34 1.62 -1.39 1.6 -1.45 1.59 -1.51 1.55 -1.56 1.54 -1.61 1.51 -1.67 7.15 2.81zm-7.15 -2.81c1.52,-1.71 4.12,-1.85 5.8,-0.3 1.68,1.55 1.81,4.2 0.29,5.91l-6.09 -5.61zm-1.06 26.69l0 -23.88 8.2 0 0 23.88 -4.1 4.19 -4.1 -4.19zm8.2 0c0,2.31 -1.84,4.19 -4.1,4.19 -2.26,0 -4.1,-1.88 -4.1,-4.19l8.2 0zm24.44 4.19l-28.55 0 0 -8.38 28.55 0 4.1 4.19 -4.1 4.19zm0 -8.38c2.26,0 4.1,1.88 4.1,4.19 0,2.31 -1.84,4.19 -4.1,4.19l0 -8.38zm4.1 -177.19l0 181.37 -8.2 0 0 -181.37 4.1 -4.19 4.1 4.19zm-8.2 0c0,-2.31 1.84,-4.19 4.1,-4.19 2.26,0 4.1,1.88 4.1,4.19l-8.2 0zm-38.97 37.16l-5.92 5.8 0.02 0.02 -1.03 -1.06 -1.05 -1.02 -1.06 -0.98 -1.08 -0.95 -1.1 -0.92 -1.11 -0.88 -1.13 -0.85 -1.15 -0.81 -1.17 -0.78 -1.19 -0.75 -1.2 -0.72 -1.22 -0.68 -1.24 -0.65 -1.26 -0.61 -1.28 -0.58 -1.3 -0.55 -1.32 -0.52 -1.34 -0.49 -1.35 -0.45 -1.38 -0.42 -1.39 -0.39 -1.42 -0.35 -1.44 -0.32 -1.46 -0.29 -1.48 -0.25 -1.51 -0.22 -1.52 -0.19 -1.55 -0.15 -1.57 -0.12 -1.59 -0.08 -1.61 -0.05 -1.64 -0.02 0 -8.38 1.81 0.02 1.79 0.05 1.77 0.1 1.75 0.13 1.73 0.17 1.71 0.21 1.7 0.25 1.67 0.28 1.66 0.33 1.63 0.37 1.62 0.4 1.6 0.44 1.58 0.48 1.56 0.52 1.54 0.56 1.51 0.59 1.5 0.63 1.48 0.68 1.45 0.71 1.44 0.75 1.42 0.79 1.39 0.83 1.37 0.86 1.35 0.91 1.33 0.94 1.31 0.98 1.29 1.02 1.26 1.05 1.24 1.09 1.22 1.13 1.2 1.17 1.17 1.2 0.02 0.02zm-0.02 -0.02c1.58,1.65 1.54,4.31 -0.08,5.92 -1.62,1.61 -4.22,1.57 -5.8,-0.08l5.88 -5.84zm19.26 53.21l-8.2 0 0 0 -0.02 -1.85 -0.05 -1.83 -0.09 -1.8 -0.12 -1.79 -0.15 -1.75 -0.19 -1.73 -0.22 -1.7 -0.25 -1.69 -0.28 -1.65 -0.32 -1.63 -0.35 -1.61 -0.39 -1.58 -0.42 -1.56 -0.45 -1.53 -0.48 -1.51 -0.51 -1.48 -0.55 -1.46 -0.58 -1.44 -0.61 -1.42 -0.65 -1.39 -0.67 -1.37 -0.71 -1.34 -0.74 -1.33 -0.77 -1.3 -0.81 -1.28 -0.84 -1.26 -0.87 -1.24 -0.91 -1.22 -0.94 -1.2 -0.97 -1.17 -1 -1.15 -1.04 -1.13 5.92 -5.8 1.18 1.28 1.15 1.31 1.1 1.34 1.07 1.36 1.03 1.39 1 1.42 0.96 1.44 0.93 1.46 0.89 1.5 0.85 1.51 0.81 1.54 0.78 1.57 0.73 1.58 0.7 1.61 0.66 1.63 0.62 1.66 0.58 1.68 0.55 1.7 0.5 1.73 0.47 1.75 0.43 1.77 0.4 1.8 0.35 1.82 0.31 1.84 0.28 1.85 0.24 1.88 0.2 1.91 0.17 1.93 0.13 1.94 0.09 1.98 0.06 1.99 0.02 2.01 0 0zm0 0c0,2.31 -1.84,4.19 -4.1,4.19 -2.26,0 -4.1,-1.88 -4.1,-4.19l8.2 0zm-14.24 47.85l-6.52 -5.08 -0.01 0.01 0.77 -1.06 0.74 -1.07 0.72 -1.1 0.7 -1.11 0.67 -1.12 0.65 -1.15 0.63 -1.17 0.6 -1.17 0.57 -1.2 0.55 -1.22 0.53 -1.24 0.5 -1.25 0.48 -1.27 0.46 -1.3 0.43 -1.3 0.41 -1.32 0.38 -1.34 0.36 -1.37 0.33 -1.39 0.31 -1.4 0.28 -1.41 0.26 -1.44 0.24 -1.45 0.21 -1.47 0.19 -1.5 0.17 -1.52 0.14 -1.53 0.11 -1.55 0.09 -1.57 0.06 -1.59 0.04 -1.6 0.01 -1.63 8.2 0 -0.01 1.76 -0.04 1.75 -0.07 1.72 -0.09 1.71 -0.12 1.7 -0.15 1.69 -0.18 1.66 -0.2 1.64 -0.23 1.63 -0.27 1.62 -0.29 1.59 -0.31 1.58 -0.35 1.56 -0.37 1.54 -0.4 1.52 -0.43 1.51 -0.46 1.5 -0.49 1.48 -0.51 1.44 -0.54 1.44 -0.57 1.43 -0.6 1.39 -0.62 1.38 -0.66 1.37 -0.69 1.35 -0.71 1.32 -0.73 1.31 -0.78 1.3 -0.79 1.27 -0.82 1.25 -0.85 1.23 -0.88 1.21 -0.01 0.01zm0.01 -0.01c-1.37,1.84 -3.94,2.2 -5.75,0.81 -1.8,-1.39 -2.16,-4.02 -0.8,-5.87l6.54 5.06zm-51.92 25.68l0 -8.38 0 0 1.81 -0.02 1.79 -0.07 1.75 -0.11 1.72 -0.15 1.7 -0.2 1.68 -0.24 1.64 -0.28 1.61 -0.33 1.6 -0.37 1.57 -0.41 1.54 -0.46 1.51 -0.5 1.48 -0.54 1.46 -0.59 1.44 -0.63 1.42 -0.67 1.39 -0.72 1.38 -0.76 1.34 -0.8 1.32 -0.85 1.31 -0.89 1.28 -0.93 1.26 -0.98 1.23 -1.02 1.21 -1.07 1.2 -1.12 1.18 -1.16 1.15 -1.2 1.13 -1.25 1.11 -1.3 1.09 -1.35 1.07 -1.39 6.52 5.08 -1.2 1.57 -1.23 1.52 -1.26 1.47 -1.29 1.43 -1.32 1.38 -1.34 1.32 -1.37 1.28 -1.4 1.23 -1.43 1.18 -1.46 1.13 -1.48 1.08 -1.51 1.03 -1.54 0.99 -1.57 0.93 -1.59 0.88 -1.62 0.83 -1.65 0.78 -1.67 0.73 -1.7 0.68 -1.73 0.63 -1.75 0.57 -1.77 0.52 -1.8 0.48 -1.82 0.43 -1.85 0.38 -1.88 0.32 -1.89 0.27 -1.91 0.22 -1.94 0.18 -1.96 0.12 -1.98 0.07 -2.01 0.03 0 0zm0 0c-2.26,0 -4.1,-1.88 -4.1,-4.19 0,-2.31 1.84,-4.19 4.1,-4.19l0 8.38zm-46.98 -19.57l5.78 -5.94 0.01 0.01 1.07 1.06 1.08 1.03 1.08 0.98 1.11 0.96 1.12 0.93 1.13 0.89 1.14 0.85 1.15 0.82 1.17 0.78 1.18 0.75 1.2 0.72 1.21 0.69 1.22 0.65 1.24 0.61 1.26 0.58 1.27 0.55 1.29 0.52 1.3 0.48 1.31 0.45 1.33 0.42 1.35 0.39 1.37 0.35 1.39 0.32 1.4 0.29 1.41 0.25 1.43 0.22 1.45 0.19 1.47 0.15 1.49 0.12 1.5 0.08 1.52 0.05 1.54 0.02 0 8.38 -1.72 -0.02 -1.7 -0.05 -1.69 -0.1 -1.68 -0.13 -1.66 -0.17 -1.65 -0.21 -1.63 -0.25 -1.61 -0.29 -1.6 -0.33 -1.57 -0.36 -1.56 -0.4 -1.55 -0.44 -1.53 -0.48 -1.52 -0.52 -1.5 -0.56 -1.48 -0.59 -1.46 -0.63 -1.45 -0.68 -1.43 -0.71 -1.42 -0.75 -1.39 -0.79 -1.38 -0.82 -1.36 -0.86 -1.34 -0.91 -1.33 -0.94 -1.31 -0.98 -1.29 -1.02 -1.26 -1.04 -1.26 -1.08 -1.24 -1.13 -1.21 -1.16 -1.2 -1.19 0.01 0.01zm-0.01 -0.01c-1.6,-1.63 -1.61,-4.29 -0.01,-5.92 1.6,-1.63 4.2,-1.64 5.8,-0.01l-5.8 5.93zm-19.9 -53.8l8.2 0 0 0 0.02 1.91 0.05 1.89 0.09 1.85 0.13 1.83 0.16 1.8 0.19 1.78 0.23 1.74 0.26 1.71 0.3 1.69 0.33 1.66 0.37 1.63 0.39 1.61 0.43 1.58 0.46 1.56 0.5 1.52 0.54 1.5 0.56 1.47 0.6 1.44 0.63 1.43 0.66 1.4 0.7 1.37 0.73 1.35 0.77 1.32 0.8 1.3 0.83 1.28 0.86 1.24 0.9 1.23 0.93 1.21 0.96 1.18 1 1.16 1.04 1.13 1.07 1.11 -5.78 5.94 -1.22 -1.27 -1.18 -1.3 -1.15 -1.32 -1.11 -1.36 -1.07 -1.37 -1.04 -1.41 -1 -1.44 -0.96 -1.46 -0.91 -1.49 -0.88 -1.52 -0.84 -1.55 -0.8 -1.57 -0.76 -1.6 -0.72 -1.62 -0.68 -1.65 -0.64 -1.68 -0.61 -1.7 -0.57 -1.73 -0.52 -1.75 -0.49 -1.78 -0.45 -1.8 -0.41 -1.83 -0.37 -1.85 -0.33 -1.87 -0.29 -1.9 -0.25 -1.93 -0.21 -1.95 -0.17 -1.97 -0.13 -2 -0.09 -2.02 -0.06 -2.04 -0.02 -2.07 0 0zm0 0c0,-2.31 1.84,-4.19 4.1,-4.19 2.26,0 4.1,1.88 4.1,4.19l-8.2 0zm14.63 -47.52l6.41 5.23 0 0 -0.8 1.04 -0.76 1.05 -0.74 1.07 -0.71 1.09 -0.69 1.1 -0.66 1.13 -0.64 1.14 -0.61 1.16 -0.59 1.17 -0.56 1.2 -0.54 1.21 -0.51 1.23 -0.49 1.26 -0.46 1.26 -0.43 1.29 -0.42 1.31 -0.39 1.33 -0.36 1.34 -0.34 1.36 -0.31 1.39 -0.29 1.41 -0.26 1.42 -0.24 1.44 -0.21 1.47 -0.19 1.48 -0.16 1.5 -0.14 1.53 -0.11 1.55 -0.09 1.57 -0.06 1.58 -0.04 1.6 -0.01 1.63 -8.2 0 0.01 -1.76 0.04 -1.75 0.07 -1.72 0.1 -1.71 0.12 -1.69 0.15 -1.67 0.18 -1.66 0.21 -1.64 0.24 -1.62 0.26 -1.61 0.3 -1.59 0.32 -1.56 0.35 -1.55 0.38 -1.54 0.42 -1.52 0.44 -1.49 0.46 -1.48 0.5 -1.46 0.53 -1.45 0.56 -1.42 0.59 -1.41 0.62 -1.39 0.64 -1.37 0.68 -1.35 0.7 -1.33 0.74 -1.31 0.76 -1.29 0.8 -1.28 0.82 -1.25 0.86 -1.24 0.88 -1.22 0.91 -1.19 0 0zm0 0c1.41,-1.8 4,-2.1 5.77,-0.66 1.77,1.44 2.06,4.08 0.64,5.89l-6.41 -5.23zm51.12 -25.46l0 8.38 0 0 -1.71 0.02 -1.69 0.07 -1.67 0.11 -1.64 0.16 -1.63 0.2 -1.6 0.24 -1.58 0.28 -1.56 0.33 -1.54 0.37 -1.52 0.42 -1.49 0.45 -1.47 0.5 -1.46 0.54 -1.44 0.58 -1.41 0.63 -1.39 0.67 -1.38 0.72 -1.35 0.75 -1.34 0.8 -1.32 0.85 -1.3 0.89 -1.29 0.93 -1.27 0.98 -1.25 1.02 -1.24 1.07 -1.22 1.11 -1.2 1.15 -1.19 1.2 -1.17 1.25 -1.15 1.3 -1.13 1.34 -1.11 1.39 -6.41 -5.23 1.24 -1.55 1.27 -1.5 1.29 -1.45 1.31 -1.4 1.33 -1.36 1.36 -1.31 1.38 -1.26 1.41 -1.22 1.44 -1.17 1.45 -1.12 1.48 -1.07 1.51 -1.02 1.53 -0.97 1.55 -0.93 1.57 -0.88 1.59 -0.83 1.62 -0.78 1.65 -0.73 1.67 -0.68 1.68 -0.62 1.71 -0.58 1.73 -0.53 1.74 -0.47 1.77 -0.43 1.79 -0.37 1.81 -0.32 1.82 -0.27 1.85 -0.23 1.87 -0.17 1.89 -0.12 1.9 -0.07 1.93 -0.03 0 0zm0 0c2.26,0 4.1,1.88 4.1,4.19 0,2.31 -1.84,4.19 -4.1,4.19l0 -8.38zm141.72 -21.49l28.55 0 0 8.38 -28.55 0 -4.1 -4.19 4.1 -4.19zm0 8.38c-2.26,0 -4.1,-1.88 -4.1,-4.19 0,-2.31 1.84,-4.19 4.1,-4.19l0 8.38zm-4.1 176.98l0 -181.17 8.2 0 0 181.17 -4.1 4.19 -4.1 -4.19zm8.2 0c0,2.31 -1.84,4.19 -4.1,4.19 -2.26,0 -4.1,-1.88 -4.1,-4.19l8.2 0zm24.44 4.19l-28.55 0 0 -8.38 28.55 0 4.1 4.19 -4.1 4.19zm0 -8.38c2.26,0 4.1,1.88 4.1,4.19 0,2.31 -1.84,4.19 -4.1,4.19l0 -8.38zm4.1 -83.29l0 87.48 -8.2 0 0 -87.48 0 0 8.2 0zm-8.2 0c0,-2.31 1.84,-4.19 4.1,-4.19 2.26,0 4.1,1.88 4.1,4.19l-8.2 0zm4.06 -39.36l7.86 2.43 0 0 -0.22 0.76 -0.21 0.78 -0.2 0.81 -0.2 0.83 -0.2 0.86 -0.19 0.89 -0.19 0.92 -0.17 0.94 -0.17 0.97 -0.17 0.99 -0.16 1.02 -0.15 1.04 -0.14 1.07 -0.14 1.1 -0.13 1.12 -0.12 1.14 -0.12 1.18 -0.11 1.19 -0.1 1.21 -0.09 1.25 -0.09 1.27 -0.08 1.29 -0.07 1.33 -0.07 1.34 -0.06 1.37 -0.04 1.39 -0.04 1.42 -0.04 1.44 -0.03 1.47 -0.02 1.49 -0.01 1.52 -0 1.54 -8.2 0 0 -1.59 0.01 -1.56 0.02 -1.54 0.03 -1.52 0.04 -1.49 0.04 -1.46 0.05 -1.45 0.06 -1.43 0.07 -1.4 0.08 -1.37 0.08 -1.35 0.09 -1.33 0.09 -1.3 0.11 -1.29 0.12 -1.26 0.12 -1.23 0.13 -1.22 0.14 -1.2 0.15 -1.17 0.15 -1.15 0.17 -1.12 0.17 -1.11 0.18 -1.08 0.19 -1.05 0.2 -1.04 0.2 -1.01 0.21 -1 0.22 -0.98 0.22 -0.94 0.24 -0.93 0.25 -0.91 0.25 -0.88 0 0zm0 0c0.65,-2.21 2.95,-3.46 5.12,-2.8 2.17,0.67 3.39,3.01 2.74,5.22l-7.86 -2.43zm15.42 -22.76l4.89 6.72 0.05 -0.04 -0.56 0.44 -0.55 0.45 -0.54 0.46 -0.52 0.46 -0.52 0.48 -0.5 0.48 -0.5 0.5 -0.48 0.5 -0.47 0.5 -0.46 0.52 -0.46 0.53 -0.43 0.53 -0.43 0.54 -0.42 0.55 -0.41 0.56 -0.4 0.57 -0.39 0.58 -0.37 0.58 -0.36 0.6 -0.35 0.61 -0.34 0.62 -0.34 0.63 -0.31 0.63 -0.31 0.64 -0.3 0.65 -0.29 0.67 -0.28 0.67 -0.26 0.68 -0.26 0.7 -0.25 0.71 -0.23 0.71 -0.22 0.72 -7.86 -2.43 0.27 -0.87 0.29 -0.87 0.3 -0.85 0.31 -0.84 0.33 -0.84 0.34 -0.82 0.35 -0.8 0.37 -0.81 0.38 -0.79 0.4 -0.79 0.41 -0.77 0.42 -0.76 0.44 -0.75 0.45 -0.74 0.47 -0.73 0.48 -0.72 0.49 -0.7 0.5 -0.69 0.52 -0.69 0.53 -0.68 0.55 -0.67 0.55 -0.65 0.56 -0.63 0.59 -0.64 0.6 -0.62 0.6 -0.6 0.62 -0.6 0.63 -0.58 0.64 -0.57 0.65 -0.56 0.66 -0.55 0.68 -0.54 0.05 -0.04zm-0.05 0.04c1.8,-1.41 4.37,-1.06 5.75,0.78 1.38,1.83 1.04,4.46 -0.76,5.87l-4.99 -6.65zm32.52 -9.81l0 8.38 0 0 -1.07 0 -1.05 0.03 -1.04 0.04 -1.03 0.06 -1.02 0.07 -1 0.09 -0.98 0.1 -0.98 0.13 -0.96 0.14 -0.94 0.15 -0.93 0.17 -0.92 0.19 -0.91 0.2 -0.9 0.22 -0.87 0.23 -0.87 0.25 -0.85 0.26 -0.84 0.28 -0.83 0.29 -0.81 0.31 -0.81 0.33 -0.79 0.34 -0.77 0.35 -0.76 0.37 -0.76 0.39 -0.73 0.39 -0.72 0.42 -0.72 0.43 -0.7 0.44 -0.69 0.46 -0.68 0.48 -0.66 0.49 -4.89 -6.72 0.82 -0.61 0.83 -0.59 0.84 -0.56 0.86 -0.56 0.87 -0.52 0.89 -0.51 0.91 -0.49 0.91 -0.47 0.93 -0.45 0.94 -0.43 0.95 -0.41 0.96 -0.39 0.98 -0.37 0.99 -0.35 1 -0.33 1.01 -0.31 1.02 -0.3 1.04 -0.27 1.04 -0.26 1.06 -0.24 1.07 -0.22 1.08 -0.2 1.09 -0.18 1.1 -0.16 1.12 -0.14 1.13 -0.13 1.14 -0.1 1.15 -0.08 1.16 -0.07 1.17 -0.05 1.19 -0.03 1.19 -0.01 0 0zm0 0c2.26,0 4.1,1.88 4.1,4.19 0,2.31 -1.84,4.19 -4.1,4.19l0 -8.38zm3.81 4.4l8.2 0 -4.37 4.18 -0.27 -0.02 -0.29 -0.02 -0.26 -0.02 -0.26 -0.01 -0.31 -0.02 -0.25 -0.02 -0.25 -0.01 -0.24 -0.01 -0.27 -0.01 -0.26 -0.01 -0.24 -0.01 -0.26 -0.01 -0.26 -0.01 -0.22 -0.01 -0.22 -0 -0.28 -0 -0.24 -0.01 -0.17 -0 -0.24 0 -0.27 -0 -0.2 -0 -0.23 0 -0.23 -0 -0.19 0 -0.26 -0 -0.22 -0 -0.19 0 -0.22 0 -0.22 0 -0.21 0 -0.21 0 -0.21 0 0 -8.38 0.21 0 0.21 0 0.21 0 0.22 0 0.22 0 0.26 0 0.22 0 0.19 -0 0.26 0 0.23 0 0.23 0 0.27 0 0.2 0 0.23 0 0.31 0 0.24 0.01 0.21 0 0.28 0 0.28 0.01 0.25 0.01 0.26 0.01 0.29 0.01 0.26 0.01 0.27 0.01 0.29 0.01 0.3 0.02 0.3 0.02 0.25 0.02 0.31 0.01 0.31 0.02 0.28 0.02 0.32 0.02 -4.37 4.18zm4.37 -4.18c2.26,0.15 3.97,2.15 3.83,4.45 -0.15,2.3 -2.1,4.06 -4.36,3.91l0.54 -8.35zm3.83 -21.82l0 26 -8.2 0 0 -26 4.38 -4.18 3.82 4.18zm-8.2 0c0,-2.31 1.84,-4.19 4.1,-4.19 2.26,0 4.1,1.88 4.1,4.19l-8.2 0zm-5.35 3.78l0 -8.38 0 0 0.34 0 0.31 0 0.31 0 0.37 0 0.31 0.01 0.31 0 0.33 0.01 0.31 0.01 0.33 0.01 0.3 0.01 0.3 0.01 0.33 0.01 0.33 0.02 0.3 0.02 0.27 0.01 0.32 0.02 0.32 0.02 0.3 0.02 0.29 0.02 0.29 0.02 0.32 0.02 0.29 0.02 0.29 0.02 0.29 0.02 0.29 0.02 0.31 0.02 0.28 0.02 0.26 0.02 0.28 0.02 0.31 0.02 0.28 0.02 0.27 0.02 -0.56 8.35 -0.28 -0.02 -0.28 -0.02 -0.25 -0.02 -0.28 -0.02 -0.31 -0.02 -0.28 -0.02 -0.26 -0.02 -0.28 -0.02 -0.29 -0.02 -0.29 -0.02 -0.28 -0.02 -0.26 -0.02 -0.29 -0.02 -0.29 -0.02 -0.29 -0.02 -0.27 -0.02 -0.27 -0.01 -0.32 -0.02 -0.3 -0.02 -0.27 -0.01 -0.27 -0.01 -0.3 -0.01 -0.3 -0.01 -0.28 -0.01 -0.31 -0.01 -0.28 -0.01 -0.31 -0 -0.31 -0.01 -0.26 -0 -0.31 0 -0.31 -0 -0.29 0 0 0zm0 0c-2.26,0 -4.1,-1.88 -4.1,-4.19 0,-2.31 1.84,-4.19 4.1,-4.19l0 8.38zm-50.41 16.21l8.2 0 -7.27 -2.66 1.12 -1.35 1.15 -1.3 1.17 -1.27 1.21 -1.22 1.24 -1.19 1.26 -1.14 1.3 -1.1 1.33 -1.06 1.35 -1.01 1.39 -0.97 1.41 -0.92 1.44 -0.89 1.47 -0.84 1.49 -0.79 1.52 -0.75 1.55 -0.71 1.57 -0.66 1.6 -0.62 1.62 -0.58 1.65 -0.53 1.67 -0.49 1.7 -0.44 1.72 -0.41 1.75 -0.36 1.77 -0.31 1.79 -0.28 1.82 -0.23 1.83 -0.19 1.86 -0.15 1.89 -0.11 1.91 -0.06 1.93 -0.02 0 8.38 -1.76 0.02 -1.74 0.06 -1.7 0.09 -1.68 0.13 -1.65 0.17 -1.62 0.2 -1.59 0.24 -1.57 0.28 -1.53 0.32 -1.51 0.35 -1.48 0.39 -1.46 0.43 -1.43 0.46 -1.4 0.49 -1.38 0.54 -1.35 0.57 -1.33 0.61 -1.3 0.64 -1.27 0.68 -1.25 0.71 -1.22 0.75 -1.2 0.79 -1.17 0.82 -1.15 0.86 -1.13 0.9 -1.11 0.94 -1.08 0.97 -1.06 1.01 -1.04 1.05 -1.02 1.09 -0.99 1.13 -0.97 1.17 -7.27 -2.66zm7.27 2.66c-1.44,1.78 -4.03,2.04 -5.78,0.58 -1.75,-1.46 -2,-4.11 -0.56,-5.89l6.34 5.31zm0.93 -22.85l0 20.2 -8.2 0 0 -20.2 4.1 -4.19 4.1 4.19zm-8.2 0c0,-2.31 1.84,-4.19 4.1,-4.19 2.26,0 4.1,1.88 4.1,4.19l-8.2 0zm242.77 93.96l8.2 0 0 0 0 0.17 0 0.18 0 0.19 0 0.19 0 0.2 0 0.24 -0 0.21 0 0.18 0 0.26 -0 0.24 0 0.24 -0 0.24 0 0.26 -0 0.3 -0 0.27 -0 0.31 -0.01 0.28 -0 0.29 -0.01 0.3 -0 0.31 -0.01 0.36 -0.01 0.32 -0.01 0.32 -0.01 0.33 -0.01 0.34 -0.02 0.39 -0.02 0.35 -0.01 0.37 -0.02 0.39 -0.02 0.37 -0.02 0.4 -0.02 0.4 -8.2 -0.4 0.02 -0.39 0.02 -0.37 0.02 -0.38 0.02 -0.35 0.01 -0.37 0.02 -0.36 0.01 -0.31 0.01 -0.35 0.01 -0.33 0.01 -0.33 0.01 -0.32 0.01 -0.27 0 -0.31 0.01 -0.3 0 -0.29 0.01 -0.29 0 -0.25 0 -0.27 0 -0.23 0 -0.26 0 -0.25 0 -0.24 0 -0.24 0 -0.19 0 -0.26 0 -0.21 0 -0.17 0 -0.2 0 -0.19 0 -0.19 0 -0.18 0 -0.17 0 0zm0 0c0,-2.31 1.84,-4.19 4.1,-4.19 2.26,0 4.1,1.88 4.1,4.19l-8.2 0zm-22.83 -68.34l6.17 -5.53 0.01 0.02 1.53 1.83 1.47 1.86 1.43 1.89 1.38 1.93 1.33 1.96 1.29 1.99 1.24 2.02 1.19 2.05 1.14 2.08 1.09 2.11 1.05 2.15 0.99 2.17 0.95 2.2 0.91 2.24 0.85 2.27 0.8 2.3 0.75 2.33 0.7 2.35 0.66 2.39 0.61 2.42 0.56 2.45 0.51 2.48 0.46 2.5 0.41 2.53 0.37 2.57 0.31 2.6 0.27 2.63 0.21 2.65 0.17 2.68 0.12 2.72 0.07 2.74 0.02 2.77 -8.2 0 -0.02 -2.62 -0.07 -2.59 -0.11 -2.56 -0.16 -2.53 -0.2 -2.49 -0.25 -2.46 -0.29 -2.43 -0.34 -2.39 -0.38 -2.37 -0.43 -2.33 -0.48 -2.3 -0.52 -2.27 -0.57 -2.24 -0.6 -2.2 -0.65 -2.17 -0.7 -2.14 -0.74 -2.11 -0.78 -2.08 -0.83 -2.06 -0.87 -2.02 -0.91 -1.99 -0.96 -1.96 -1 -1.94 -1.05 -1.9 -1.09 -1.88 -1.13 -1.85 -1.18 -1.81 -1.22 -1.79 -1.26 -1.76 -1.31 -1.74 -1.35 -1.7 -1.39 -1.68 0.01 0.02zm-0.01 -0.02c-1.48,-1.74 -1.31,-4.39 0.4,-5.91 1.71,-1.52 4.3,-1.33 5.79,0.41l-6.19 5.5zm-58.22 -26.13l0 -8.38 0 0 2.42 0.03 2.4 0.08 2.38 0.14 2.35 0.2 2.32 0.25 2.3 0.31 2.27 0.37 2.25 0.42 2.22 0.48 2.2 0.54 2.17 0.6 2.14 0.65 2.12 0.71 2.09 0.76 2.07 0.82 2.04 0.88 2 0.93 1.98 0.99 1.96 1.06 1.92 1.11 1.89 1.17 1.87 1.22 1.84 1.28 1.81 1.33 1.78 1.39 1.75 1.44 1.72 1.5 1.69 1.56 1.67 1.61 1.63 1.67 1.6 1.72 1.57 1.78 -6.17 5.53 -1.43 -1.62 -1.46 -1.57 -1.48 -1.51 -1.5 -1.46 -1.53 -1.41 -1.55 -1.36 -1.57 -1.3 -1.6 -1.25 -1.63 -1.2 -1.65 -1.15 -1.67 -1.09 -1.7 -1.04 -1.72 -1 -1.74 -0.94 -1.77 -0.89 -1.8 -0.84 -1.82 -0.79 -1.85 -0.74 -1.87 -0.69 -1.9 -0.64 -1.93 -0.58 -1.96 -0.54 -1.98 -0.48 -2.01 -0.44 -2.04 -0.38 -2.07 -0.33 -2.09 -0.28 -2.12 -0.23 -2.15 -0.18 -2.17 -0.13 -2.21 -0.07 -2.24 -0.02 0 0zm0 0c-2.26,0 -4.1,-1.88 -4.1,-4.19 0,-2.31 1.84,-4.19 4.1,-4.19l0 8.38zm-40.53 11.35l-4.18 -7.2 -0.01 0 1.3 -0.77 1.3 -0.74 1.3 -0.72 1.32 -0.7 1.32 -0.67 1.33 -0.65 1.33 -0.63 1.34 -0.59 1.35 -0.58 1.37 -0.56 1.36 -0.52 1.37 -0.5 1.38 -0.48 1.38 -0.45 1.39 -0.43 1.39 -0.4 1.41 -0.38 1.41 -0.35 1.41 -0.33 1.42 -0.3 1.43 -0.28 1.43 -0.26 1.44 -0.23 1.44 -0.2 1.46 -0.19 1.46 -0.16 1.46 -0.13 1.47 -0.11 1.48 -0.08 1.48 -0.06 1.49 -0.04 1.5 -0.02 0 8.38 -1.36 0.01 -1.35 0.04 -1.35 0.06 -1.34 0.07 -1.34 0.1 -1.33 0.12 -1.32 0.14 -1.31 0.17 -1.31 0.19 -1.3 0.21 -1.3 0.23 -1.29 0.25 -1.28 0.28 -1.29 0.3 -1.27 0.31 -1.26 0.34 -1.27 0.37 -1.25 0.38 -1.25 0.41 -1.24 0.43 -1.24 0.46 -1.24 0.48 -1.22 0.49 -1.22 0.52 -1.22 0.55 -1.21 0.56 -1.2 0.59 -1.2 0.61 -1.19 0.64 -1.19 0.66 -1.19 0.68 -1.18 0.7 -0.01 0zm0.01 -0c-1.94,1.18 -4.46,0.53 -5.62,-1.46 -1.16,-1.98 -0.52,-4.56 1.43,-5.74l4.2 7.2zm-31.15 33.75l-7.28 -3.87 0.02 -0.04 0.79 -1.47 0.8 -1.44 0.82 -1.43 0.84 -1.41 0.86 -1.39 0.87 -1.37 0.89 -1.35 0.91 -1.33 0.93 -1.31 0.95 -1.3 0.96 -1.27 0.98 -1.25 1 -1.23 1.02 -1.21 1.04 -1.19 1.06 -1.17 1.08 -1.15 1.09 -1.13 1.12 -1.11 1.13 -1.08 1.15 -1.07 1.17 -1.05 1.2 -1.03 1.2 -1 1.22 -0.99 1.25 -0.96 1.26 -0.94 1.28 -0.92 1.31 -0.91 1.33 -0.88 1.34 -0.86 1.37 -0.84 4.18 7.2 -1.24 0.76 -1.23 0.79 -1.21 0.8 -1.18 0.82 -1.17 0.84 -1.15 0.85 -1.13 0.87 -1.11 0.89 -1.1 0.92 -1.08 0.93 -1.06 0.94 -1.04 0.97 -1.03 0.99 -1.01 1 -0.99 1.02 -0.98 1.04 -0.96 1.06 -0.94 1.08 -0.93 1.09 -0.91 1.13 -0.9 1.14 -0.88 1.15 -0.86 1.18 -0.85 1.2 -0.83 1.22 -0.82 1.24 -0.8 1.26 -0.79 1.28 -0.77 1.3 -0.76 1.32 -0.74 1.34 -0.72 1.36 0.02 -0.04zm-0.02 0.04c-1.07,2.04 -3.56,2.81 -5.55,1.72 -2,-1.09 -2.75,-3.63 -1.69,-5.67l7.24 3.95zm-10.71 45.38l-8.2 0 0 0 0.01 -1.65 0.03 -1.64 0.06 -1.64 0.08 -1.63 0.1 -1.61 0.13 -1.62 0.15 -1.61 0.17 -1.6 0.2 -1.6 0.22 -1.58 0.24 -1.58 0.26 -1.58 0.29 -1.57 0.31 -1.56 0.33 -1.56 0.35 -1.54 0.37 -1.54 0.4 -1.53 0.42 -1.52 0.44 -1.51 0.46 -1.51 0.49 -1.5 0.52 -1.5 0.53 -1.49 0.56 -1.48 0.58 -1.47 0.6 -1.46 0.62 -1.46 0.65 -1.46 0.67 -1.44 0.69 -1.43 0.71 -1.43 7.28 3.87 -0.66 1.31 -0.64 1.33 -0.62 1.33 -0.59 1.33 -0.57 1.34 -0.56 1.35 -0.54 1.35 -0.51 1.36 -0.49 1.36 -0.47 1.38 -0.45 1.38 -0.43 1.39 -0.41 1.39 -0.39 1.41 -0.37 1.41 -0.34 1.41 -0.32 1.42 -0.31 1.43 -0.28 1.44 -0.26 1.44 -0.24 1.44 -0.22 1.45 -0.2 1.47 -0.18 1.46 -0.15 1.48 -0.14 1.49 -0.11 1.48 -0.09 1.5 -0.08 1.51 -0.05 1.51 -0.03 1.52 -0.01 1.53 0 0zm0 0c0,2.31 -1.84,4.19 -4.1,4.19 -2.26,0 -4.1,-1.88 -4.1,-4.19l8.2 0zm21.17 61.81l-6.31 5.35 0.01 0.01 -1.41 -1.76 -1.37 -1.78 -1.33 -1.8 -1.28 -1.83 -1.24 -1.85 -1.19 -1.87 -1.15 -1.89 -1.1 -1.91 -1.06 -1.94 -1.02 -1.96 -0.97 -1.98 -0.93 -2.01 -0.88 -2.03 -0.83 -2.05 -0.79 -2.07 -0.74 -2.09 -0.7 -2.12 -0.65 -2.14 -0.61 -2.15 -0.57 -2.19 -0.52 -2.2 -0.48 -2.22 -0.43 -2.24 -0.39 -2.26 -0.33 -2.28 -0.3 -2.3 -0.25 -2.32 -0.2 -2.35 -0.16 -2.37 -0.11 -2.38 -0.07 -2.41 -0.02 -2.42 8.2 0 0.02 2.26 0.06 2.24 0.11 2.22 0.14 2.19 0.19 2.17 0.23 2.15 0.27 2.13 0.31 2.11 0.35 2.08 0.4 2.06 0.44 2.04 0.48 2.02 0.52 2 0.56 1.98 0.6 1.96 0.64 1.94 0.69 1.92 0.72 1.89 0.76 1.87 0.8 1.85 0.85 1.83 0.89 1.81 0.93 1.79 0.97 1.77 1.01 1.76 1.05 1.74 1.09 1.71 1.13 1.7 1.18 1.67 1.22 1.66 1.26 1.64 1.3 1.61 0.01 0.01zm-0.01 -0.01c1.45,1.77 1.22,4.41 -0.51,5.9 -1.74,1.48 -4.33,1.25 -5.78,-0.52l6.29 -5.38zm63.46 29.69l0 8.38 0 0 -2.65 -0.04 -2.61 -0.09 -2.59 -0.15 -2.56 -0.22 -2.53 -0.28 -2.5 -0.35 -2.48 -0.41 -2.44 -0.48 -2.42 -0.54 -2.39 -0.6 -2.36 -0.67 -2.33 -0.73 -2.3 -0.8 -2.27 -0.87 -2.23 -0.92 -2.21 -0.99 -2.18 -1.06 -2.14 -1.12 -2.11 -1.18 -2.08 -1.25 -2.05 -1.31 -2.01 -1.38 -1.98 -1.44 -1.94 -1.5 -1.92 -1.57 -1.88 -1.63 -1.85 -1.69 -1.82 -1.76 -1.78 -1.82 -1.75 -1.88 -1.71 -1.95 -1.68 -2 6.31 -5.35 1.54 1.85 1.57 1.78 1.6 1.72 1.63 1.66 1.65 1.6 1.68 1.54 1.7 1.48 1.74 1.42 1.76 1.36 1.79 1.3 1.81 1.24 1.85 1.18 1.87 1.13 1.9 1.07 1.93 1.01 1.96 0.95 1.98 0.89 2.02 0.83 2.05 0.78 2.07 0.72 2.11 0.66 2.14 0.61 2.17 0.55 2.2 0.49 2.23 0.44 2.26 0.37 2.3 0.31 2.33 0.26 2.35 0.2 2.39 0.15 2.43 0.09 2.45 0.03 0 0zm0 0c2.26,0 4.1,1.88 4.1,4.19 0,2.31 -1.84,4.19 -4.1,4.19l0 -8.38zm77.81 -39.24l3.19 -7.72 1.96 5.94 -1.72 2.96 -1.79 2.87 -1.85 2.78 -1.92 2.7 -1.99 2.61 -2.05 2.52 -2.11 2.44 -2.17 2.35 -2.23 2.26 -2.29 2.17 -2.35 2.07 -2.41 1.99 -2.46 1.89 -2.51 1.8 -2.57 1.7 -2.62 1.61 -2.67 1.52 -2.72 1.42 -2.77 1.33 -2.81 1.23 -2.86 1.13 -2.9 1.04 -2.95 0.94 -2.99 0.85 -3.03 0.74 -3.07 0.65 -3.1 0.55 -3.14 0.44 -3.18 0.35 -3.21 0.25 -3.24 0.15 -3.27 0.05 0 -8.38 3.03 -0.04 2.99 -0.14 2.96 -0.23 2.92 -0.32 2.88 -0.41 2.84 -0.5 2.81 -0.59 2.76 -0.68 2.73 -0.77 2.68 -0.85 2.64 -0.95 2.6 -1.03 2.56 -1.11 2.51 -1.2 2.47 -1.3 2.43 -1.38 2.38 -1.46 2.33 -1.55 2.28 -1.64 2.24 -1.72 2.19 -1.81 2.14 -1.89 2.09 -1.97 2.04 -2.06 1.98 -2.15 1.94 -2.24 1.88 -2.32 1.82 -2.4 1.77 -2.49 1.71 -2.57 1.66 -2.65 1.59 -2.74 1.96 5.94zm-1.96 -5.94c1.13,-2 3.64,-2.69 5.6,-1.54 1.96,1.15 2.64,3.71 1.52,5.72l-7.12 -4.17zm-20.24 -12.69l25.4 10.92 -3.19 7.72 -25.4 -10.92 -1.97 -5.94 5.16 -1.78zm-3.19 7.72c-2.09,-0.9 -3.06,-3.35 -2.19,-5.48 0.88,-2.13 3.29,-3.13 5.37,-2.23l-3.19 7.72zm-52.61 32.33l0 -8.38 0 0 2.13 -0.03 2.1 -0.09 2.06 -0.15 2.02 -0.21 1.98 -0.26 1.94 -0.33 1.9 -0.38 1.87 -0.44 1.83 -0.5 1.79 -0.56 1.76 -0.61 1.72 -0.67 1.69 -0.72 1.66 -0.79 1.61 -0.83 1.58 -0.9 1.55 -0.95 1.52 -1.02 1.48 -1.07 1.45 -1.13 1.42 -1.19 1.39 -1.25 1.36 -1.31 1.33 -1.37 1.3 -1.43 1.26 -1.49 1.24 -1.56 1.2 -1.61 1.17 -1.68 1.14 -1.74 1.11 -1.8 1.08 -1.87 7.13 4.16 -1.2 2.06 -1.23 2 -1.28 1.95 -1.31 1.88 -1.36 1.82 -1.39 1.75 -1.44 1.7 -1.48 1.63 -1.52 1.57 -1.56 1.5 -1.6 1.44 -1.65 1.37 -1.68 1.31 -1.73 1.25 -1.76 1.17 -1.8 1.11 -1.85 1.05 -1.88 0.98 -1.92 0.91 -1.95 0.84 -2 0.78 -2.02 0.7 -2.07 0.63 -2.09 0.57 -2.13 0.5 -2.17 0.43 -2.2 0.37 -2.24 0.3 -2.26 0.23 -2.3 0.17 -2.33 0.1 -2.36 0.04 0 0zm0 0c-2.26,0 -4.1,-1.88 -4.1,-4.19 0,-2.31 1.84,-4.19 4.1,-4.19l0 8.38zm-33.72 -9.81l4.44 -7.05 0.04 0.03 0.8 0.53 0.81 0.51 0.82 0.5 0.82 0.48 0.83 0.45 0.84 0.44 0.84 0.42 0.85 0.4 0.86 0.39 0.86 0.37 0.86 0.35 0.88 0.34 0.89 0.32 0.89 0.3 0.89 0.29 0.9 0.27 0.92 0.25 0.93 0.24 0.92 0.22 0.94 0.2 0.94 0.19 0.95 0.17 0.96 0.15 0.97 0.14 0.98 0.12 0.98 0.11 1 0.09 1 0.07 1.01 0.06 1.03 0.04 1.03 0.03 1.04 0 0 8.38 -1.17 -0.01 -1.16 -0.03 -1.15 -0.05 -1.15 -0.06 -1.14 -0.08 -1.13 -0.1 -1.13 -0.12 -1.12 -0.14 -1.11 -0.16 -1.1 -0.18 -1.09 -0.2 -1.09 -0.22 -1.08 -0.24 -1.08 -0.26 -1.07 -0.28 -1.06 -0.29 -1.06 -0.31 -1.05 -0.33 -1.04 -0.36 -1.03 -0.37 -1.02 -0.39 -1.02 -0.41 -1.02 -0.44 -0.99 -0.45 -1 -0.47 -0.99 -0.5 -0.97 -0.51 -0.98 -0.54 -0.96 -0.56 -0.95 -0.57 -0.94 -0.6 -0.94 -0.61 0.04 0.03zm-0.04 -0.03c-1.89,-1.27 -2.42,-3.87 -1.17,-5.8 1.24,-1.93 3.79,-2.46 5.69,-1.19l-4.51 6.99zm-24.09 -29.67l7.54 -3.32 0.03 0.07 0.44 1.06 0.45 1.04 0.46 1.02 0.48 1 0.5 1 0.51 0.97 0.52 0.95 0.54 0.93 0.56 0.93 0.57 0.91 0.58 0.89 0.6 0.87 0.61 0.87 0.62 0.84 0.63 0.82 0.65 0.81 0.67 0.8 0.68 0.78 0.7 0.77 0.7 0.75 0.72 0.73 0.74 0.73 0.74 0.7 0.76 0.69 0.78 0.68 0.78 0.67 0.8 0.65 0.82 0.64 0.82 0.62 0.84 0.6 0.86 0.6 0.87 0.58 -4.44 7.05 -0.99 -0.67 -0.98 -0.68 -0.96 -0.7 -0.96 -0.72 -0.93 -0.73 -0.92 -0.75 -0.91 -0.77 -0.89 -0.78 -0.88 -0.8 -0.87 -0.82 -0.84 -0.83 -0.83 -0.85 -0.82 -0.87 -0.8 -0.88 -0.79 -0.91 -0.77 -0.92 -0.75 -0.94 -0.74 -0.96 -0.72 -0.98 -0.7 -0.98 -0.69 -1.01 -0.67 -1.03 -0.65 -1.04 -0.64 -1.06 -0.62 -1.08 -0.6 -1.09 -0.59 -1.11 -0.56 -1.13 -0.55 -1.15 -0.54 -1.17 -0.51 -1.19 -0.5 -1.2 0.03 0.07zm-0.03 -0.07c-0.86,-2.14 0.14,-4.59 2.24,-5.46 2.09,-0.88 4.5,0.15 5.35,2.28l-7.59 3.18zm-1.3 -25.3l0 8.38 4.07 -4.76 0.08 0.62 0.09 0.62 0.1 0.63 0.09 0.62 0.1 0.6 0.11 0.61 0.11 0.59 0.12 0.61 0.12 0.62 0.12 0.58 0.13 0.6 0.13 0.6 0.13 0.57 0.14 0.59 0.14 0.57 0.15 0.59 0.15 0.58 0.15 0.56 0.16 0.57 0.17 0.57 0.17 0.56 0.17 0.55 0.18 0.56 0.18 0.55 0.19 0.54 0.19 0.56 0.2 0.55 0.2 0.53 0.2 0.54 0.21 0.53 0.21 0.53 0.22 0.53 -7.54 3.32 -0.25 -0.6 -0.25 -0.61 -0.24 -0.61 -0.24 -0.61 -0.23 -0.62 -0.22 -0.61 -0.22 -0.61 -0.21 -0.63 -0.21 -0.63 -0.2 -0.62 -0.2 -0.64 -0.19 -0.64 -0.18 -0.63 -0.18 -0.63 -0.18 -0.65 -0.17 -0.64 -0.17 -0.64 -0.16 -0.65 -0.15 -0.65 -0.15 -0.66 -0.14 -0.65 -0.14 -0.65 -0.13 -0.67 -0.13 -0.65 -0.13 -0.66 -0.12 -0.68 -0.11 -0.67 -0.11 -0.69 -0.1 -0.67 -0.1 -0.66 -0.1 -0.68 -0.1 -0.68 4.07 -4.76zm-4.07 4.76c-0.31,-2.29 1.26,-4.41 3.51,-4.72 2.24,-0.31 4.32,1.29 4.63,3.58l-8.13 1.14zm146.19 3.62l-142.13 0 0 -8.38 142.13 0 4.1 4.39 -4.1 3.99zm0 -8.38c2.26,0 4.1,1.88 4.1,4.19 0,2.31 -1.84,4.19 -4.1,4.19l0 -8.38zm-125.72 -64.97l5.66 6.06 0.01 -0.01 -0.89 0.9 -0.87 0.91 -0.85 0.94 -0.82 0.95 -0.8 0.98 -0.78 1 -0.76 1.02 -0.74 1.03 -0.72 1.06 -0.7 1.07 -0.67 1.09 -0.66 1.12 -0.63 1.13 -0.61 1.16 -0.59 1.18 -0.57 1.2 -0.55 1.22 -0.53 1.24 -0.51 1.26 -0.49 1.28 -0.46 1.3 -0.45 1.33 -0.42 1.35 -0.41 1.37 -0.39 1.38 -0.36 1.41 -0.35 1.43 -0.32 1.45 -0.3 1.46 -0.28 1.5 -0.26 1.52 -0.24 1.53 -8.11 -1.26 0.26 -1.66 0.29 -1.64 0.3 -1.62 0.33 -1.61 0.35 -1.59 0.38 -1.57 0.4 -1.55 0.43 -1.53 0.45 -1.51 0.48 -1.5 0.5 -1.48 0.52 -1.45 0.55 -1.44 0.57 -1.42 0.59 -1.39 0.62 -1.38 0.65 -1.36 0.67 -1.33 0.69 -1.32 0.73 -1.3 0.74 -1.27 0.78 -1.26 0.8 -1.24 0.82 -1.2 0.85 -1.2 0.88 -1.17 0.9 -1.15 0.93 -1.13 0.96 -1.11 0.98 -1.08 1 -1.06 1.03 -1.03 0.01 -0.01zm-0.01 0.01c1.63,-1.6 4.24,-1.54 5.8,0.12 1.57,1.67 1.52,4.32 -0.12,5.92l-5.69 -6.04zm40.97 -16.52l0 8.38 0 0 -1.33 0.01 -1.3 0.04 -1.29 0.07 -1.28 0.1 -1.26 0.12 -1.24 0.16 -1.23 0.19 -1.21 0.2 -1.2 0.24 -1.18 0.26 -1.16 0.29 -1.15 0.32 -1.14 0.35 -1.13 0.37 -1.11 0.4 -1.1 0.43 -1.09 0.46 -1.07 0.48 -1.06 0.52 -1.04 0.54 -1.04 0.57 -1.03 0.59 -1.02 0.62 -1 0.65 -0.99 0.68 -0.99 0.7 -0.96 0.73 -0.96 0.76 -0.95 0.79 -0.94 0.82 -0.93 0.85 -0.92 0.87 -5.66 -6.06 1.05 -1 1.07 -0.97 1.08 -0.94 1.1 -0.91 1.11 -0.88 1.13 -0.85 1.14 -0.81 1.15 -0.79 1.18 -0.76 1.19 -0.73 1.2 -0.69 1.21 -0.67 1.23 -0.63 1.25 -0.6 1.27 -0.57 1.26 -0.54 1.3 -0.51 1.31 -0.47 1.31 -0.44 1.33 -0.41 1.34 -0.37 1.37 -0.35 1.38 -0.3 1.39 -0.28 1.41 -0.24 1.41 -0.21 1.43 -0.18 1.45 -0.15 1.45 -0.11 1.48 -0.09 1.49 -0.04 1.5 -0.02 0 0zm0 0c2.26,0 4.1,1.88 4.1,4.19 0,2.31 -1.84,4.19 -4.1,4.19l0 -8.38zm32.21 9.68l-4.65 6.91 0.07 0.04 -0.77 -0.5 -0.78 -0.49 -0.78 -0.48 -0.78 -0.46 -0.79 -0.44 -0.8 -0.43 -0.8 -0.41 -0.81 -0.4 -0.82 -0.38 -0.82 -0.36 -0.82 -0.34 -0.84 -0.33 -0.84 -0.31 -0.84 -0.3 -0.85 -0.28 -0.85 -0.26 -0.87 -0.25 -0.87 -0.23 -0.89 -0.22 -0.88 -0.2 -0.89 -0.19 -0.89 -0.17 -0.9 -0.15 -0.92 -0.14 -0.92 -0.12 -0.91 -0.11 -0.93 -0.09 -0.94 -0.07 -0.94 -0.06 -0.95 -0.04 -0.96 -0.03 -0.96 -0 0 -8.38 1.11 0.01 1.09 0.03 1.09 0.05 1.09 0.07 1.07 0.08 1.07 0.1 1.08 0.12 1.06 0.15 1.05 0.16 1.05 0.18 1.04 0.2 1.04 0.22 1.03 0.24 1.02 0.25 1.02 0.27 1.02 0.29 1 0.31 1 0.33 0.99 0.35 0.98 0.37 0.97 0.39 0.97 0.41 0.96 0.43 0.95 0.44 0.95 0.46 0.94 0.48 0.93 0.5 0.93 0.52 0.93 0.54 0.9 0.55 0.91 0.57 0.89 0.59 0.07 0.04zm-0.07 -0.04c1.89,1.27 2.42,3.87 1.17,5.8 -1.24,1.93 -3.79,2.46 -5.69,1.19l4.51 -6.99zm23.19 29.9l-7.61 3.15 0.01 0.02 -0.44 -1.07 -0.45 -1.05 -0.47 -1.03 -0.48 -1.02 -0.49 -1 -0.5 -0.97 -0.52 -0.96 -0.53 -0.95 -0.54 -0.93 -0.56 -0.92 -0.56 -0.89 -0.58 -0.88 -0.59 -0.86 -0.6 -0.85 -0.62 -0.84 -0.62 -0.81 -0.63 -0.8 -0.65 -0.79 -0.66 -0.78 -0.67 -0.75 -0.69 -0.74 -0.7 -0.73 -0.71 -0.72 -0.72 -0.7 -0.73 -0.68 -0.75 -0.67 -0.76 -0.66 -0.77 -0.64 -0.78 -0.62 -0.79 -0.61 -0.81 -0.6 -0.82 -0.59 4.65 -6.91 0.94 0.67 0.93 0.68 0.92 0.71 0.9 0.72 0.89 0.74 0.87 0.75 0.86 0.77 0.85 0.79 0.83 0.81 0.81 0.82 0.8 0.84 0.8 0.85 0.78 0.88 0.76 0.89 0.75 0.9 0.74 0.93 0.72 0.95 0.7 0.96 0.69 0.97 0.67 1 0.66 1.01 0.65 1.03 0.63 1.04 0.61 1.06 0.6 1.07 0.59 1.09 0.57 1.11 0.55 1.13 0.54 1.14 0.52 1.16 0.51 1.18 0.49 1.19 0.01 0.02zm-0.01 -0.02c0.86,2.14 -0.14,4.59 -2.24,5.46 -2.09,0.88 -4.5,-0.15 -5.35,-2.28l7.59 -3.18zm1.1 25.37l0 -8.38 -4.07 4.72 -0.09 -0.68 -0.09 -0.66 -0.09 -0.65 -0.1 -0.66 -0.11 -0.66 -0.11 -0.65 -0.11 -0.63 -0.12 -0.64 -0.12 -0.63 -0.13 -0.63 -0.13 -0.61 -0.13 -0.6 -0.14 -0.61 -0.14 -0.6 -0.15 -0.59 -0.15 -0.59 -0.15 -0.56 -0.15 -0.57 -0.16 -0.58 -0.16 -0.57 -0.16 -0.54 -0.17 -0.54 -0.17 -0.55 -0.17 -0.54 -0.17 -0.51 -0.18 -0.52 -0.19 -0.53 -0.18 -0.5 -0.18 -0.49 -0.19 -0.49 -0.19 -0.48 -0.19 -0.48 7.61 -3.15 0.21 0.54 0.21 0.55 0.21 0.56 0.21 0.57 0.2 0.57 0.19 0.57 0.2 0.58 0.2 0.6 0.19 0.6 0.19 0.59 0.19 0.61 0.18 0.62 0.18 0.62 0.17 0.62 0.18 0.64 0.17 0.66 0.16 0.64 0.16 0.66 0.15 0.66 0.15 0.66 0.15 0.69 0.14 0.68 0.14 0.69 0.13 0.69 0.13 0.7 0.13 0.71 0.12 0.71 0.11 0.71 0.11 0.72 0.11 0.74 0.1 0.74 0.09 0.74 -4.07 4.72zm4.07 -4.72c0.28,2.29 -1.31,4.39 -3.56,4.68 -2.25,0.29 -4.3,-1.33 -4.59,-3.63l8.14 -1.06zm-117.85 -3.66l113.78 0 0 8.38 -113.78 0 -4.06 -4.82 4.06 -3.56zm0 8.38c-2.26,0 -4.1,-1.88 -4.1,-4.19 0,-2.31 1.84,-4.19 4.1,-4.19l0 8.38z"/>
    <path id="_1_4" class="fil3" d="M1142.47 277.74l66.94 181.37 24.19 0 42.95 -136.41 42.82 136.41 24.19 0 66.94 -181.37 -30.42 0 -48.92 137.84 -42.61 -137.84 -24.13 0 -42.42 137.84 -48.91 -137.84 -30.63 0zm460.35 0l-28.55 0 0 23.95c-17.29,-18.91 -38.19,-28.46 -62.78,-28.46 -22.65,0 -42.75,7.98 -60.11,23.81 -19.96,18.7 -29.89,42.44 -29.89,71.38 0,17.33 3.89,33.09 11.86,47.7 8.11,15.15 19.43,26.89 34.18,35.41 13.8,8.12 28.41,12.08 43.96,12.08 24.99,0 46.1,-9.55 62.78,-28.39l0 23.88 28.55 0 0 -181.37zm-91.13 21.7c18.49,0 33.44,6.14 45.09,18.36 12,12.76 18.09,29.55 18.09,50.29 0,18.15 -4.49,33.3 -13.4,45.31 -12,16.04 -28.15,24.02 -48.65,24.02 -17.49,0 -32.1,-6.14 -44.09,-18.36 -12.4,-12.56 -18.7,-29.48 -18.7,-50.83 0,-18.15 4.49,-33.1 13.74,-44.9 12.46,-15.9 28.41,-23.89 47.91,-23.89zm170.27 -21.49l-28.55 0 0 181.17 28.55 0 0 -87.48c0,-16.79 1.34,-29.55 3.89,-38.15 2.55,-8.59 7.3,-15.42 13.94,-20.61 7.84,-5.94 17.89,-8.94 30.02,-8.94 2.21,0 4.76,0 7.91,0.21l0 -26c-2.95,-0.2 -6.1,-0.41 -9.45,-0.41 -19.83,0 -35.31,6.76 -46.3,20.4l0 -20.2zm242.57 102.97c0.2,-4.23 0.2,-7.24 0.2,-9.01 0,-28.94 -8.04,-52.55 -23.85,-71.11 -15.88,-18.43 -36.32,-27.57 -61.31,-27.57 -15.28,0 -29.48,3.96 -42.62,11.94 -14,8.46 -24.72,20.2 -32.7,35.41 -7.44,14.61 -11.19,30.37 -11.19,47.36 0,25.11 7.44,46.61 22.11,64.48 17.02,20.88 39.27,31.19 66.61,31.19 33.77,0 62.05,-16.44 79.41,-47.29l-25.4 -10.92c-11.93,21.29 -30.02,32 -54.21,32 -11.8,0 -22.25,-2.94 -31.5,-9.15 -9.98,-6.55 -17.69,-15.69 -22.58,-27.84 -2.55,-6.01 -4.16,-12.56 -5.09,-19.52l142.13 0zm-142.13 -24.98c2.55,-17.13 8.85,-30.98 19.23,-41.15 10.45,-10.17 22.98,-15.35 38.13,-15.35 11.06,0 21.04,3 29.89,8.94 9.45,6.62 16.75,15.83 21.65,27.98 2.14,5.39 3.95,12.01 4.89,19.59l-113.78 0z"/>
   </g>
   <g>
    <path class="fil4" d="M485.24 91.75c10.53,0 19.07,8.54 19.07,19.07 0,10.53 -8.54,19.07 -19.07,19.07 -10.54,0 -19.07,-8.54 -19.07,-19.07 0,-10.54 8.54,-19.07 19.07,-19.07z"/>
    <path class="fil4" d="M590.01 91.75c10.53,0 19.07,8.54 19.07,19.07 0,10.53 -8.54,19.07 -19.07,19.07 -10.53,0 -19.07,-8.54 -19.07,-19.07 0,-10.54 8.54,-19.07 19.07,-19.07z"/>
    <path class="fil4" d="M589.9 196.12c10.54,0 19.07,8.54 19.07,19.07 0,10.53 -8.54,19.07 -19.07,19.07 -10.53,0 -19.07,-8.54 -19.07,-19.07 0,-10.54 8.54,-19.07 19.07,-19.07z"/>
    <path class="fil4" d="M485.3 143.62c23.31,0 32.64,-11.76 32.64,-33.43 0,-10.53 8.54,-19.07 19.07,-19.07 10.53,0 19.07,8.54 19.07,19.07 0,10.54 -8.54,19.07 -19.07,19.07 -20.46,0 -32.64,12.66 -32.64,33.43 0,10.53 -8.54,19.07 -19.07,19.07 -10.53,0 -19.07,-8.54 -19.07,-19.07 0,-10.54 8.54,-19.07 19.07,-19.07z"/>
    <path class="fil4" d="M537.8 195.79c23.31,0 32.64,-11.76 32.64,-33.43 0,-10.53 8.54,-19.07 19.07,-19.07 10.53,0 19.07,8.54 19.07,19.07 0,10.53 -8.54,19.07 -19.07,19.07 -20.46,0 -32.64,12.67 -32.64,33.43 0,10.54 -8.54,19.07 -19.07,19.07 -10.53,0 -19.07,-8.54 -19.07,-19.07 0,-10.53 8.54,-19.07 19.07,-19.07z"/>
    <path class="fil4" d="M484.96 196.37c23.31,0 32.64,-11.76 32.64,-33.43 0,-10.53 8.54,-19.07 19.07,-19.07 10.53,0 19.07,8.54 19.07,19.07 0,10.53 -8.54,19.07 -19.07,19.07 -20.46,0 -32.64,12.67 -32.64,33.43 0,10.54 -8.54,19.07 -19.07,19.07 -10.54,0 -19.07,-8.54 -19.07,-19.07 0,-10.53 8.54,-19.07 19.07,-19.07z"/>
   </g>
  </g>
 </g>
</svg>
